<svg width="558" height="96" viewBox="0 0 558 96" fill="none" xmlns="http://www.w3.org/2000/svg">
<path d="M85.3983 35.3803H62.9558C62.6566 33.0762 62.0431 30.9965 61.1155 29.1413C60.1879 27.286 58.961 25.7001 57.4349 24.3835C55.9089 23.0668 54.0985 22.0644 52.0039 21.3762C49.9392 20.658 47.65 20.2989 45.1365 20.2989C40.6779 20.2989 36.8328 21.3911 33.601 23.5755C30.3992 25.7599 27.9306 28.9168 26.195 33.0463C24.4894 37.1757 23.6366 42.1729 23.6366 48.0378C23.6366 54.1422 24.5044 59.2591 26.2399 63.3885C28.0054 67.488 30.4741 70.585 33.6459 72.6797C36.8477 74.7444 40.633 75.7767 45.0018 75.7767C47.4555 75.7767 49.6848 75.4625 51.6897 74.8341C53.7245 74.2057 55.5049 73.2931 57.031 72.0962C58.587 70.8693 59.8587 69.3881 60.8462 67.6525C61.8636 65.8871 62.5668 63.8972 62.9558 61.6829L85.3983 61.8175C85.0093 65.8871 83.8273 69.8968 81.8523 73.8467C79.9073 77.7965 77.2292 81.4023 73.8179 84.6639C70.4067 87.8956 66.2474 90.4691 61.3399 92.3841C56.4624 94.2992 50.8668 95.2568 44.553 95.2568C36.2343 95.2568 28.7834 93.4315 22.2003 89.7808C15.6471 86.1003 10.4703 80.744 6.67008 73.712C2.86982 66.68 0.969696 58.122 0.969696 48.0378C0.969696 37.9238 2.89975 29.3507 6.75985 22.3188C10.62 15.2868 15.8416 9.94548 22.4247 6.29484C29.0078 2.6442 36.3839 0.81888 44.553 0.81888C50.1187 0.81888 55.2655 1.59689 59.9934 3.1529C64.7213 4.67898 68.8806 6.92323 72.4714 9.88563C76.0622 12.8181 78.9797 16.4239 81.224 20.7029C83.4682 24.9819 84.8596 29.8744 85.3983 35.3803ZM153.724 2.07566H175.897V61.3687C175.897 68.2211 174.267 74.1908 171.005 79.2777C167.743 84.3348 163.195 88.2547 157.36 91.0376C151.525 93.7905 144.747 95.167 137.027 95.167C129.217 95.167 122.395 93.7905 116.56 91.0376C110.725 88.2547 106.191 84.3348 102.959 79.2777C99.7278 74.1908 98.1119 68.2211 98.1119 61.3687V2.07566H120.33V59.4386C120.33 62.6105 121.018 65.4382 122.395 67.9219C123.801 70.4055 125.761 72.3505 128.275 73.7569C130.788 75.1633 133.706 75.8665 137.027 75.8665C140.349 75.8665 143.251 75.1633 145.735 73.7569C148.248 72.3505 150.208 70.4055 151.615 67.9219C153.021 65.4382 153.724 62.6105 153.724 59.4386V2.07566ZM239.511 29.635C239.211 26.3434 237.88 23.785 235.516 21.9597C233.182 20.1044 229.845 19.1768 225.507 19.1768C222.634 19.1768 220.24 19.5509 218.325 20.2989C216.41 21.047 214.974 22.0794 214.016 23.396C213.058 24.6827 212.565 26.1639 212.535 27.8396C212.475 29.2161 212.744 30.428 213.343 31.4753C213.971 32.5226 214.869 33.4502 216.036 34.2582C217.233 35.0362 218.669 35.7244 220.345 36.3229C222.02 36.9213 223.906 37.445 226 37.8938L233.9 39.6892C238.448 40.6767 242.458 41.9933 245.929 43.6391C249.43 45.2849 252.363 47.2449 254.727 49.519C257.121 51.7932 258.931 54.4115 260.158 57.3739C261.385 60.3363 262.013 63.6578 262.043 67.3384C262.013 73.1435 260.547 78.1257 257.644 82.285C254.742 86.4444 250.567 89.6312 245.121 91.8455C239.705 94.0598 233.167 95.167 225.507 95.167C217.816 95.167 211.113 94.015 205.398 91.7109C199.683 89.4068 195.239 85.9058 192.067 81.2078C188.895 76.5098 187.265 70.5701 187.175 63.3885H208.45C208.63 66.3509 209.423 68.8196 210.829 70.7945C212.236 72.7694 214.166 74.2656 216.619 75.283C219.103 76.3004 221.976 76.8091 225.237 76.8091C228.23 76.8091 230.773 76.4051 232.868 75.5972C234.992 74.7892 236.623 73.6671 237.76 72.2308C238.897 70.7945 239.481 69.1487 239.511 67.2935C239.481 65.5579 238.942 64.0767 237.895 62.8499C236.847 61.5931 235.232 60.5158 233.047 59.6181C230.893 58.6905 228.14 57.8377 224.788 57.0597L215.183 54.8155C207.223 52.9901 200.955 50.0427 196.376 45.9731C191.798 41.8736 189.524 36.3378 189.554 29.3657C189.524 23.6803 191.05 18.698 194.132 14.419C197.214 10.14 201.478 6.80354 206.924 4.40968C212.37 2.01581 218.579 0.81888 225.551 0.81888C232.673 0.81888 238.852 2.03077 244.089 4.45456C249.355 6.84842 253.44 10.2148 256.343 14.5537C259.245 18.8925 260.726 23.9197 260.786 29.635H239.511ZM270.257 20.1194V2.07566H347.953V20.1194H320.079V94H298.175V20.1194H270.257ZM441.369 48.0378C441.369 58.1519 439.424 66.7249 435.534 73.7569C431.644 80.7889 426.378 86.1302 419.735 89.7808C413.122 93.4315 405.701 95.2568 397.472 95.2568C389.213 95.2568 381.777 93.4165 375.164 89.7359C368.551 86.0554 363.3 80.7141 359.41 73.712C355.549 66.68 353.619 58.122 353.619 48.0378C353.619 37.9238 355.549 29.3507 359.41 22.3188C363.3 15.2868 368.551 9.94548 375.164 6.29484C381.777 2.6442 389.213 0.81888 397.472 0.81888C405.701 0.81888 413.122 2.6442 419.735 6.29484C426.378 9.94548 431.644 15.2868 435.534 22.3188C439.424 29.3507 441.369 37.9238 441.369 48.0378ZM418.658 48.0378C418.658 42.0532 417.805 36.9961 416.099 32.8667C414.424 28.7373 412 25.6103 408.828 23.4858C405.686 21.3612 401.901 20.2989 397.472 20.2989C393.073 20.2989 389.288 21.3612 386.116 23.4858C382.944 25.6103 380.505 28.7373 378.8 32.8667C377.124 36.9961 376.286 42.0532 376.286 48.0378C376.286 54.0225 377.124 59.0795 378.8 63.2089C380.505 67.3383 382.944 70.4653 386.116 72.5899C389.288 74.7144 393.073 75.7767 397.472 75.7767C401.901 75.7767 405.686 74.7144 408.828 72.5899C412 70.4653 414.424 67.3383 416.099 63.2089C417.805 59.0795 418.658 54.0225 418.658 48.0378ZM454.341 2.07566H481.856L505.196 58.9898H506.273L529.613 2.07566H557.128V94H535.493V37.5348H534.73L512.647 93.4165H498.822L476.739 37.2206H475.976V94H454.341V2.07566Z" fill="#6681C9" fill-opacity="0.2"/>
</svg>
