<svg width="192" height="202" viewBox="0 0 192 202" fill="none" xmlns="http://www.w3.org/2000/svg">
<path d="M166.789 158.62C166.369 156.64 162.311 154.87 161.801 154.66C161.771 154.65 161.751 154.64 161.751 154.64C161.791 154.5 161.831 154.36 161.871 154.22C162.941 149.99 159.172 148.44 156.823 146.45C154.404 144.41 151.445 139.79 149.476 138.12C149.146 137.84 148.687 137.56 148.387 137.71C148.077 137.86 148.167 138.32 147.987 138.42C147.377 138.75 144.418 134.46 142.589 131.98C139.98 128.47 138.661 126.74 137.281 125.62C133.293 122.37 129.245 121.52 127.595 120.85C125.166 119.86 123.957 114.94 123.957 114.94C123.957 114.94 124.407 114.48 124.487 113.8C124.567 113.12 122.897 104.63 121.988 101.6C121.178 98.91 121.258 96.04 121.168 93.26C124.307 90.26 126.156 85.33 125.206 81.02C124.187 76.43 121.748 72.34 119.009 68.57C116.79 65.51 114.871 61.96 112.012 59.47C108.443 56.35 106.014 52.72 103.246 48.98C102.126 47.48 95.6988 43.42 86.2228 39.34C86.1828 39.32 86.1328 39.3 86.0928 39.28C86.0928 39.26 86.0928 39.23 86.0928 39.21C86.1028 39.16 86.1028 39.11 86.1128 39.06C86.1328 38.92 86.1428 38.79 86.1628 38.64C86.2128 38.15 86.2627 37.59 86.2728 36.95C86.2927 36.02 86.3027 34.66 85.9729 33.03C85.8729 32.57 85.753 32.09 85.603 31.6C85.3232 30.69 84.7234 28.85 83.1441 26.96C81.9146 25.49 80.5951 24.58 79.6455 24.04C79.4356 23.92 79.1757 23.94 78.9958 24.1L77.5064 25.4C76.7068 25.29 75.6672 25.21 74.4577 25.32C73.2482 25.43 72.2286 25.69 71.459 25.94C71.309 25.82 71.0991 25.67 70.8392 25.51C70.8392 25.51 69.9696 24.98 69.1799 24.82C68.2503 24.64 66.0512 27.8 64.262 32.86C64.142 33.19 64.0321 33.52 63.9221 33.86C63.9221 33.86 64.192 34.01 63.1624 34.44C63.1524 34.45 63.1324 34.45 63.1224 34.45C63.1125 34.46 63.1025 34.47 63.0925 34.47C62.6726 34.64 62.0529 34.86 61.1533 35.12C57.8447 36.1 57.1949 38.32 55.2957 37.56C53.4065 36.8 53.2366 37.89 52.207 37.72C51.1775 37.56 48.7485 38.59 46.5194 38.7C44.3003 38.81 41.2716 40.92 41.0017 42.22C40.7318 43.52 39.1525 44.61 35.584 45.31C32.2654 45.96 31.8156 49.04 31.6456 49.04C31.6256 49.02 31.6156 49 31.6056 48.98C31.5657 48.84 31.4457 48.66 31.2558 48.46C30.696 47.87 29.5365 47.12 28.1571 46.82C26.3179 46.42 25.6781 51.7 21.6798 56.1C17.6815 60.51 20.2404 61.55 22.8793 66.51C25.5182 71.47 30.9659 69.87 30.4861 68.19C29.9963 66.51 31.2858 66.03 35.1242 66.35C38.9626 66.67 39.6823 60.51 39.6823 60.51L39.8022 56.29V56.23C41.7014 54.06 42.9509 53.76 43.7606 53.93C44.5502 54.1 44.7402 54.7 46.0596 55.22C47.2791 55.71 47.9288 55.52 48.9284 55.73C50.8376 56.12 51.1875 57.36 52.8068 58.39C52.8068 58.39 54.3761 59.37 62.7726 58.91C62.7926 58.9 62.8226 58.9 62.8426 58.9H62.8726C63.3524 65.15 77.0966 83.32 77.0966 83.32C74.2278 88.24 76.2569 93.73 76.2569 93.73C76.2569 93.73 74.6676 96.18 71.6389 105.72C71.5789 105.92 71.5189 106.11 71.469 106.31C71.349 106.77 71.249 107.23 71.1791 107.7C71.1391 107.91 71.1091 108.12 71.0791 108.34C70.9392 109.49 70.9092 110.68 70.9892 111.87C71.0891 113.53 71.359 115.19 71.7388 116.8C73.2682 123.35 76.5168 128.97 76.5168 128.97C76.5768 129.2 76.6468 129.44 76.7168 129.7C77.4464 132.38 78.566 136.28 79.7855 139.8C81.4648 144.62 81.8946 144.5 81.9945 145.89C82.0545 146.71 82.5943 147.43 82.8642 148.21C83.264 149.37 83.294 149.58 83.5439 149.93C84.1037 150.67 84.8234 150.78 85.4931 151.02C85.673 151.08 85.8629 151.16 86.0329 151.26C86.1428 151.32 86.2528 151.4 86.3527 151.48C87.6722 152.53 88.3619 155.02 87.8321 156.7C87.1324 158.91 83.4339 160.48 76.077 163.53C74.7276 164.09 73.0383 164.77 72.8584 166C72.6684 167.38 74.4277 169.23 74.9875 169.78C74.9975 169.79 75.0075 169.79 75.0075 169.8C75.0075 169.8 75.0141 169.803 75.0275 169.81C75.1074 169.89 75.1574 169.94 75.1574 169.94C67.9404 178.88 87.2323 175.69 95.239 174.91C103.236 174.12 103.975 173.39 103.975 171.61C103.975 169.83 101.686 166.83 101.536 166.63H101.526C101.596 166.54 101.656 166.46 101.706 166.37C104.695 162.17 100.367 150.38 98.6676 146.18C98.2877 145.24 98.1478 144.21 98.2977 143.2C99.4772 135.31 96.8783 127.33 95.4689 125.1C93.9695 122.73 91.8504 119.85 91.7205 117.23C91.6905 116.49 91.8104 115.97 92.0104 115.62C92.3202 115.09 92.78 114.91 93.1099 114.86H93.1299C93.3298 114.84 93.4697 114.86 93.4697 114.86C93.4697 114.86 93.5397 114.89 93.6597 114.93C93.6696 114.93 93.6796 114.93 93.6896 114.94C94.6492 115.06 95.5988 115.2 96.5484 115.36C96.7783 115.34 97.0083 115.3 97.2182 115.23C98.8375 114.73 100.587 111.98 100.587 111.98C100.587 111.98 103.585 118.6 104.205 119.98C104.245 120.08 104.305 120.16 104.375 120.22C105.615 120.01 106.834 119.77 108.044 119.49H108.064H108.074C113.671 118.24 119.069 116.4 124.327 113.93C119.599 117.28 113.981 119.47 108.204 120.3C108.413 121.31 108.943 123.43 110.323 127.72C112.572 134.72 136.592 147.06 140.38 150.17C143.339 152.6 143.899 151.32 144.718 151.44C144.718 151.44 145.178 151.56 145.528 151.98C146.238 152.83 145.568 155.46 143.819 158.49C142.629 160.56 140.52 163.55 139.9 164.42C139.001 165.68 138.391 166.48 138.591 167.44C138.841 168.7 140.32 169.4 141.12 169.7C141.16 169.71 141.2 169.73 141.24 169.74C141.29 169.76 141.34 169.78 141.38 169.79C141.53 172.32 142.369 173.26 142.989 173.68C144.119 174.43 146.198 174.55 158.862 166.08C165.11 161.9 167.109 160.19 166.779 158.62H166.789ZM92.5001 172.75C90.0212 173.18 87.4922 173.38 84.9833 173.34C84.2436 173.33 82.8242 172.81 83.5739 171.83C83.8937 171.41 84.7634 171.16 85.2432 170.98C85.8729 170.73 86.5226 170.55 87.1824 170.38C88.7417 169.98 90.3211 169.78 91.9104 169.53C92.4402 169.45 92.9699 169.44 93.4697 169.53C94.1694 169.67 94.8092 170.02 95.299 170.65C95.4489 170.84 95.5788 171.05 95.6288 171.29C95.9387 172.67 93.3198 172.61 92.5001 172.75ZM159.992 162.51C158.662 163.58 157.213 164.53 155.784 165.47C154.334 166.43 152.855 167.33 151.316 168.13C150.956 168.31 150.566 168.49 150.186 168.41C150.166 168.41 150.156 168.4 150.146 168.4C149.496 168.22 149.626 167.38 149.806 166.9C150.066 166.23 150.626 165.71 151.176 165.29C152.265 164.48 153.285 163.57 154.314 162.69C155.184 161.94 155.954 160.97 157.123 160.7C158.113 160.46 159.202 160.71 159.992 161.36C160.202 161.53 160.392 161.77 160.352 162.03C160.322 162.23 160.152 162.38 159.992 162.51Z" fill="#231F20"/>
<path d="M98.0885 144.58C96.4692 149.94 89.952 153.3 84.7441 150.95C90.1719 151.74 95.1798 149.07 98.0885 144.58Z" fill="white"/>
<path d="M67.3711 46C68.3007 49.35 71.0695 56.68 75.1878 56.52C76.2374 56.45 77.177 55.77 77.9667 54.93C80.4056 52.35 82.3148 49.13 82.5747 45.5C82.9046 49.27 81.0953 52.79 78.6564 55.57C77.8267 56.49 76.6872 57.38 75.2778 57.51C70.3199 57.7 67.7709 50.01 67.3711 46Z" fill="white"/>
<path d="M96.6992 52.5701C103.956 58.0201 102.397 65.9801 99.458 73.3401C96.9391 80.4401 94.2102 87.4601 90.8217 94.2101C88.5126 98.7601 84.7042 102.18 81.6455 106.16C84.3844 101.97 88.0228 98.3501 90.132 93.8701C93.3106 87.1001 95.9795 80.0601 98.5984 73.0401C101.537 65.7301 103.396 58.4901 96.6892 52.5701H96.6992Z" fill="white"/>
<path d="M89.7119 98.6501C102.407 98.2901 117.92 95.6201 124.108 83.0701C123.548 84.6501 122.758 86.1501 121.828 87.5701C114.671 97.4101 101.107 99.5801 89.7119 98.6501Z" fill="white"/>
<path d="M101.587 110.31C103.556 108.04 106.595 104.92 108.694 102.71C110.773 100.48 113.932 97.5101 115.701 95.0701C112.192 101.07 106.795 105.8 101.587 110.31Z" fill="white"/>
<path d="M77.1066 83.32C76.7068 81.27 77.1966 79.03 78.3961 77.31C79.5656 75.6 80.4952 73.92 80.5752 71.91C80.7651 67.72 82.9941 63.76 86.0928 61.02C84.8634 62.67 83.7738 64.39 82.9542 66.22C81.4248 69.08 82.0246 72.26 80.7551 75.11C80.2853 76.08 79.6456 76.95 79.0358 77.74C77.7863 79.29 77.1266 81.24 77.1066 83.31V83.32Z" fill="white"/>
<path d="M74.8779 169.76C83.5143 171.26 91.411 165.95 99.9774 166.15C101.207 166.22 102.416 166.51 103.606 166.77C93.85 165.5 84.6039 172.94 74.8779 169.76Z" fill="white"/>
<path d="M140.69 169.97C144.579 167.57 148.627 165.3 152.056 162.29C153.815 160.81 154.984 158.64 157.054 157.47C158.633 156.6 160.132 156 161.402 154.75L162.561 153.47C161.502 155.59 159.423 156.98 157.483 158.11C155.584 159.41 154.495 161.53 152.735 163.03C149.187 166.1 145.009 168.22 140.7 169.97H140.69Z" fill="white"/>
<path d="M93.1199 114.86C92.7901 114.91 92.3303 115.09 92.0204 115.62C90.1412 115.32 88.3019 114.85 86.5127 114.18C88.7318 114.38 90.9308 114.59 93.1199 114.86Z" fill="white"/>
<path d="M69.4802 125.59C69.4802 125.59 64.4723 123.33 66.9312 119.3C69.3902 115.27 70.6597 113.9 70.9595 112.03C71.2594 110.16 73.3186 123.42 69.4902 125.58L69.4802 125.59Z" fill="#231F20"/>
<path d="M39.9827 56.31C36.0444 55.99 32.5858 52.77 31.6162 48.98C33.5654 52.26 36.3842 54.95 39.9827 56.31Z" fill="white"/>
<path d="M85.0937 33.4C85.0937 33.4 86.5437 32.36 86.6837 33.75C86.8237 35.14 86.5437 38.37 85.9237 39.69C85.3037 41.01 84.2637 38.65 85.0937 33.41V33.4Z" fill="#231F20"/>
<path d="M60.0047 48.3201C59.4849 50.1501 59.4149 52.1601 60.2945 53.8601C60.9942 55.1401 62.0938 56.2101 62.6136 57.6001C62.7735 58.0701 63.0034 58.5901 62.8135 59.0801C62.6036 57.6501 61.3441 56.5901 60.4945 55.4801C58.6952 53.5601 58.5753 50.3901 59.9947 48.3201H60.0047Z" fill="white"/>
<path d="M63.1133 35.9099C63.1133 35.9099 62.7135 32.4599 64.3528 32.8899C65.9921 33.3199 66.5019 36.3399 63.1133 35.9099Z" fill="#231F20"/>
<path d="M63.1328 34.1899C63.4127 36.2199 63.7526 37.9599 65.122 39.5299C67.0612 42.0599 70.6097 42.6999 73.5984 43.2199C78.6363 43.9799 84.3739 42.6699 86.7129 37.6499C85.9033 40.2099 83.9241 42.3599 81.4151 43.3699C76.3773 45.2499 70.3898 44.4399 65.9516 41.4499C65.132 40.8199 64.6022 39.8899 64.0824 39.0499C63.1628 37.6399 63.1528 35.7899 63.1328 34.1899Z" fill="white"/>
<path d="M63.9721 39.0798C64.4718 40.2998 64.9416 41.5498 65.2115 42.8498C65.2315 42.9698 65.2415 43.0698 65.2115 43.1898C65.0616 43.5098 64.9616 43.5198 64.9017 43.6298C64.5618 44.0798 64.7017 44.6598 64.8817 45.2698C65.1316 46.0298 66.6909 50.1498 67.6405 49.4898C67.8104 49.3098 67.9104 49.0498 68.0104 48.7898C67.9904 49.0698 67.9604 49.3498 67.8004 49.6198C66.421 51.1798 63.2723 44.8298 64.102 43.6398C64.142 43.4598 64.5318 42.9998 64.5918 42.9998C64.4119 41.6998 64.142 40.4098 63.982 39.0898L63.9721 39.0798Z" fill="white"/>
<path d="M82.1445 49.0999C83.2541 47.2599 84.5435 45.4799 85.4731 43.5699C85.5431 43.3299 85.5831 43.3399 85.5031 43.0899C85.4232 42.7199 85.1533 42.4599 85.0933 42.0199C85.0933 41.4299 85.743 40.9799 85.883 40.2699C86.0329 39.8299 86.1528 39.3499 86.0229 38.8799C86.3228 39.2999 86.2828 39.8599 86.2428 40.3499C86.1828 40.8299 86.0229 41.3899 85.743 41.7899C85.6131 42.0399 86.1129 42.5099 86.1828 42.8799C86.3028 43.1099 86.2628 43.5899 86.1628 43.8199C85.2432 45.8699 83.7938 47.6199 82.1445 49.1099V49.0999Z" fill="white"/>
<path d="M148.157 138.37C147.797 139.51 147.377 140.62 146.877 141.7C146.388 142.78 145.748 143.82 145.188 144.8C144.638 145.76 144.328 146.82 144.218 147.95C144.109 149.07 144.179 150.24 144.288 151.43C143.779 150.35 143.469 149.16 143.439 147.93C143.389 146.7 143.699 145.42 144.318 144.33C144.938 143.28 145.578 142.33 146.208 141.34C146.827 140.35 147.437 139.34 148.167 138.39L148.157 138.37Z" fill="white"/>
<path d="M106.314 167.34C83.6839 142.81 62.8626 116.39 44.4403 88.8001C38.3528 79.6901 33.5249 72.3101 27.9272 62.9101C27.7773 62.0701 28.1871 61.2501 28.9168 60.9001C29.5365 60.6101 30.2962 60.7101 30.846 61.1701C36.2637 70.2801 41.0017 77.5401 47.2691 86.9101C65.5914 114.35 86.2928 140.64 108.813 165.03L106.314 167.34Z" fill="url(#paint0_radial_92_124)" stroke="#F86708" stroke-width="0.5" stroke-miterlimit="10"/>
<path d="M69.0005 107.71C68.9305 107.97 69.2504 112.58 70.13 114.26C71.0097 115.94 69.6402 121.37 69.2104 124.37C68.7806 127.36 69.4503 130.42 74.0384 130.3C78.6165 130.18 81.3653 126.02 81.9151 122.42C82.4649 118.82 87.1629 107.51 87.1629 107.51C87.1629 107.51 69.9001 104.25 69.0005 107.71Z" fill="#231F20"/>
<path d="M69.0107 107.64C69.3206 106.87 70.1902 106.79 70.74 107.37C70.9199 107.58 71.1299 107.71 71.4197 107.78C74.6584 108.42 78.1469 108.58 81.4355 108.38C81.7854 108.34 81.8154 108.24 81.9053 107.93C81.9753 107.65 82.0153 107.33 81.8454 107.06C82.1053 107.26 82.1852 107.64 82.1752 107.96C82.2352 109.14 80.4859 109.08 79.6863 109.25C76.8375 109.48 73.8787 109.45 71.1798 108.38C70.87 108.24 70.5601 108 70.3802 107.69C70.0603 107.11 69.4306 107.15 69.0107 107.64Z" fill="white"/>
<path d="M83.5744 109.77C84.1842 113.4 83.9943 117.16 83.2046 120.77C82.5649 124.46 80.2458 127.85 76.9072 129.6C78.9064 127.74 80.7156 125.75 81.5153 123.13C82.8947 118.82 83.3245 114.32 83.5744 109.77Z" fill="white"/>
<g opacity="0.84">
<path d="M42.652 102.28L42.562 101.45C39.7432 100.48 37.2443 98.5 35.6749 95.69C34.1056 92.88 33.7657 89.97 34.3155 87.15L33.6358 86.63C32.9461 89.72 33.3359 93.08 35.0052 96.07C36.6745 99.06 39.5133 101.29 42.642 102.28H42.652ZM58.8352 92.72L59.4849 93.23C60.4345 89.93 60.1147 86.27 58.3154 83.04C56.5762 79.92 53.7573 77.77 50.5787 76.8L50.6686 77.63C53.5274 78.59 56.0664 80.58 57.6457 83.41C59.295 86.36 59.6249 89.69 58.8352 92.72Z" fill="#F86708"/>
<path d="M42.4225 100L42.3425 99.1301C40.3633 98.2401 38.6341 96.7201 37.5045 94.6901C36.435 92.7701 36.0252 90.6501 36.2351 88.6101L35.5154 88.0601C35.1955 90.3901 35.6053 92.8501 36.8348 95.0601C38.1343 97.3901 40.1334 99.0701 42.4325 100H42.4225ZM57.0164 91.3301L57.6961 91.8501C58.2359 89.2801 57.886 86.5201 56.5066 84.0501C55.1272 81.5801 53.148 79.9901 50.819 79.0801L50.9089 79.9501C52.9281 80.8301 54.6873 82.3601 55.8369 84.4301C57.0563 86.6101 57.4162 89.0401 57.0164 91.3301Z" fill="#F86708"/>
<path d="M42.152 97.34L42.052 96.37C41.0124 95.68 40.1328 94.73 39.4831 93.58C38.9033 92.54 38.5835 91.44 38.4735 90.33L37.6738 89.72C37.6938 91.16 38.0537 92.61 38.8034 93.95C39.623 95.42 40.7925 96.56 42.142 97.34H42.152ZM54.8866 89.71L55.6263 90.27C55.7762 88.55 55.4164 86.78 54.5168 85.16C53.6771 83.66 52.4776 82.49 51.0782 81.71L51.1782 82.67C52.2577 83.37 53.1773 84.33 53.8471 85.53C54.5867 86.85 54.9166 88.28 54.8866 89.7V89.71Z" fill="#F86708"/>
</g>
<path d="M42.4116 91.93C41.1022 89.58 41.9518 86.62 44.2909 85.3C46.6299 83.98 49.6086 84.82 50.9181 87.17C52.2275 89.52 51.3879 92.5 49.0389 93.81C46.6899 95.12 43.7111 94.28 42.4017 91.93H42.4116Z" fill="#F86708"/>
<path d="M125.827 166.96C121.728 168.67 115.181 167.35 111.183 165.99C111.183 165.99 111.183 165.99 111.173 165.99C108.864 164.84 108.064 163.86 108.064 163.86L108.184 164.73C107.914 164.57 107.734 164.42 107.694 164.32L105.535 166.4C105.765 166.73 106.005 167.04 106.255 167.35L105.945 167.32C105.945 167.32 107.884 169.41 108.874 169.99C108.894 170 108.904 170 108.924 170.01C116.471 176.14 127.716 175.78 131.334 175.09C135.832 174.24 132.224 164.27 125.807 166.96H125.827Z" fill="#F86708"/>
<defs>
<radialGradient id="paint0_radial_92_124" cx="0" cy="0" r="1" gradientUnits="userSpaceOnUse" gradientTransform="translate(48.0288 87.9701) scale(22.9004 22.91)">
<stop stop-color="white"/>
<stop offset="0.08" stop-color="#FEFBF8"/>
<stop offset="0.2" stop-color="#FEF0E6"/>
<stop offset="0.33" stop-color="#FDDEC9"/>
<stop offset="0.47" stop-color="#FCC5A0"/>
<stop offset="0.63" stop-color="#FAA46C"/>
<stop offset="0.79" stop-color="#F97E2D"/>
<stop offset="0.88" stop-color="#F86708"/>
</radialGradient>
</defs>
</svg>
