<svg width="516" height="96" viewBox="0 0 516 96" fill="none" xmlns="http://www.w3.org/2000/svg">
<mask id="mask0_43_94" style="mask-type:luminance" maskUnits="userSpaceOnUse" x="0" y="0" width="516" height="96">
<path d="M0 0H516V96H0V0Z" fill="white"/>
</mask>
<g mask="url(#mask0_43_94)">
<path fill-rule="evenodd" clip-rule="evenodd" d="M172.39 42.7358C171.913 42.7358 171.476 42.7695 171.084 42.8311C170.661 42.9013 170.221 43.0073 169.764 43.1556L169.767 43.1585C169.267 43.3211 168.818 43.4974 168.424 43.6851C167.998 43.8892 167.603 44.1099 167.24 44.3477C166.897 44.5777 166.55 44.8435 166.207 45.1487C165.855 45.4589 165.557 45.7612 165.31 46.0521L165.318 46.0607C165.057 46.3716 164.847 46.6653 164.693 46.934C164.549 47.1941 164.427 47.4713 164.333 47.7679C164.251 48.0337 164.2 48.2802 164.182 48.5094C164.169 48.6856 164.177 48.8511 164.208 49.0016C164.245 49.195 164.293 49.3462 164.342 49.4494C164.393 49.5561 164.467 49.6593 164.56 49.766C164.659 49.8778 164.778 49.9845 164.918 50.0791C165.105 50.208 165.324 50.3227 165.571 50.4237H165.585C165.858 50.5354 166.136 50.6164 166.414 50.6673C166.715 50.7231 167.101 50.7482 167.566 50.7482C168.023 50.7482 168.446 50.7174 168.833 50.6529C169.279 50.5806 169.71 50.4767 170.122 50.3399C170.513 50.2109 170.954 50.0318 171.433 49.7997C171.891 49.5812 172.287 49.3598 172.625 49.1363C173.009 48.8841 173.355 48.6183 173.662 48.3439C173.974 48.0674 174.272 47.7593 174.553 47.4205C174.783 47.1439 174.99 46.8445 175.172 46.5228C175.334 46.2312 175.462 45.9375 175.556 45.6409C175.635 45.3887 175.683 45.1623 175.697 44.961C175.711 44.7762 175.706 44.6193 175.678 44.4932C175.646 44.3341 175.595 44.1858 175.524 44.0433C175.468 43.9251 175.393 43.8162 175.308 43.718C175.197 43.5955 175.075 43.4859 174.939 43.3906C174.758 43.2652 174.542 43.1499 174.292 43.0467C174.053 42.9486 173.787 42.8733 173.489 42.8175C173.194 42.7637 172.827 42.7358 172.39 42.7358ZM174.789 35.1855C173.196 35.1855 171.618 35.3789 170.056 35.7593C170.865 35.6332 171.643 35.5716 172.39 35.5716C173.185 35.5716 173.988 35.6476 174.795 35.793C175.598 35.9413 176.37 36.1648 177.103 36.47C177.821 36.7695 178.482 37.1248 179.084 37.5418C179.732 37.9895 180.299 38.491 180.788 39.0448C181.296 39.6265 181.718 40.2563 182.054 40.9369C182.377 41.5945 182.618 42.3052 182.774 43.0661C182.939 43.8584 182.993 44.6472 182.937 45.4396C182.883 46.2119 182.732 46.9899 182.482 47.7679C182.241 48.5288 181.923 49.2595 181.531 49.9645C181.154 50.6365 180.691 51.2991 180.146 51.9547C179.779 52.3938 179.388 52.8136 178.968 53.2163C179.263 52.9813 179.553 52.7348 179.836 52.4834C180.631 51.7777 181.341 51.0534 181.966 50.309C182.573 49.584 183.101 48.8203 183.55 48.0165C183.981 47.2471 184.328 46.4526 184.586 45.6409C184.83 44.8714 184.977 44.1378 185.032 43.4415C185.08 42.7809 185.043 42.1483 184.924 41.5379C184.798 40.9111 184.612 40.3379 184.359 39.8257C184.103 39.302 183.782 38.8184 183.394 38.3757C182.984 37.9114 182.514 37.4945 181.982 37.1277L181.977 37.1391C181.381 36.7279 180.731 36.3805 180.029 36.0953C178.545 35.4907 176.796 35.1855 174.789 35.1855ZM130.266 42.7358L128.645 47.8431C128.565 48.0953 128.517 48.3217 128.503 48.523C128.489 48.7079 128.498 48.8648 128.523 48.9937C128.557 49.1499 128.605 49.2982 128.677 49.4415C128.736 49.559 128.807 49.6679 128.892 49.766C129.003 49.8892 129.125 50.001 129.261 50.0934C129.443 50.2195 129.658 50.3341 129.908 50.4373C130.147 50.5383 130.414 50.6135 130.712 50.6673C131.007 50.7231 131.374 50.7482 131.81 50.7482C132.287 50.7482 132.725 50.7174 133.116 50.6529C133.526 50.5885 133.965 50.4796 134.434 50.3255H134.448C134.917 50.1744 135.359 49.9981 135.776 49.7997C136.205 49.5976 136.597 49.377 136.96 49.1363C137.307 48.9099 137.65 48.6412 137.994 48.336C138.311 48.0559 138.607 47.7507 138.882 47.4262H138.896C139.13 47.1468 139.334 46.8552 139.507 46.5507C139.651 46.2899 139.773 46.0134 139.867 45.7161C139.952 45.4503 140.004 45.2074 140.018 44.9918C140.032 44.8098 140.023 44.6393 139.992 44.4824C139.955 44.289 139.91 44.1407 139.859 44.0347C139.808 43.9308 139.734 43.8248 139.643 43.718C139.544 43.6062 139.422 43.5002 139.282 43.4049C139.109 43.2874 138.885 43.1699 138.618 43.0603V43.0553C138.354 42.9486 138.079 42.8705 137.787 42.8175C137.486 42.7637 137.1 42.7358 136.634 42.7358H130.266ZM129.438 58.2233C130.826 58.2233 132.199 58.0829 133.557 57.8064C132.957 57.8759 132.376 57.9124 131.81 57.9124C131.015 57.9124 130.212 57.8393 129.406 57.691C128.602 57.5456 127.834 57.3192 127.101 57.014C126.38 56.7174 125.718 56.3592 125.116 55.9422C124.469 55.4973 123.901 54.9937 123.413 54.4392C122.905 53.8603 122.482 53.2277 122.147 52.5479C121.823 51.8902 121.582 51.1795 121.426 50.4208C121.261 49.6285 121.207 48.8368 121.264 48.0473C121.318 47.2722 121.471 46.497 121.718 45.7161L122.663 42.7358H121.329L119.705 47.8431C119.455 48.6298 119.305 49.3741 119.248 50.0791C119.195 50.7568 119.223 51.3887 119.336 51.9797H119.339C119.461 52.6095 119.643 53.1747 119.887 53.6755C120.128 54.1705 120.446 54.6434 120.836 55.089C121.235 55.5418 121.698 55.948 122.224 56.309C122.806 56.7088 123.45 57.0505 124.151 57.3328C125.622 57.926 127.384 58.2233 129.438 58.2233ZM156.273 45.691C156.143 46.4024 155.964 47.1188 155.734 47.8431C155.51 48.5431 155.248 49.2287 154.95 49.9L154.942 50.0067C154.894 50.6587 154.931 51.2884 155.053 51.8902C155.175 52.5056 155.365 53.0708 155.621 53.5888C155.873 54.1061 156.197 54.5875 156.589 55.0324C157 55.5031 157.472 55.92 157.999 56.2833C158.55 56.6644 159.198 57.0083 159.941 57.3135C161.417 57.921 163.169 58.2233 165.193 58.2233C166.513 58.2233 167.828 58.0915 169.139 57.8228C168.6 57.8845 168.078 57.9124 167.566 57.9124C166.772 57.9124 165.959 57.8393 165.137 57.691C164.291 57.5399 163.512 57.3192 162.803 57.0283L162.806 57.0226C162.068 56.7231 161.4 56.3678 160.802 55.9559C160.151 55.511 159.578 55.0045 159.081 54.4392C158.576 53.8661 158.153 53.2306 157.812 52.5278C157.474 51.8286 157.23 51.1093 157.083 50.3728C156.929 49.5976 156.881 48.8031 156.943 47.9914V47.9778C157 47.2134 157.156 46.4325 157.406 45.6409C157.642 44.908 157.96 44.1801 158.363 43.4665C158.763 42.7587 159.217 42.1039 159.725 41.4993H159.74C160.052 41.1296 160.364 40.7857 160.682 40.4633C160.501 40.6173 160.322 40.7714 160.143 40.9311C159.351 41.6361 158.638 42.364 158.008 43.1198C157.4 43.8498 156.873 44.6164 156.424 45.4145L156.273 45.691ZM144.305 36.1705C143.093 35.6726 141.702 35.3789 140.137 35.2922L139.303 35.8374C140.043 35.9857 140.736 36.1906 141.386 36.4564H141.4C142.116 36.7501 142.783 37.1083 143.399 37.5282C144.049 37.9731 144.625 38.4796 145.122 39.0448C145.625 39.6187 146.048 40.2563 146.388 40.9562C146.726 41.6562 146.971 42.3747 147.118 43.1112C147.271 43.8864 147.319 44.6809 147.257 45.4954C147.2 46.2706 147.044 47.0544 146.794 47.8431C146.559 48.5796 146.241 49.3039 145.838 50.0203C145.46 50.6895 145.003 51.3443 144.466 51.9797L144.475 51.9876C144.174 52.343 143.856 52.6876 143.524 53.0207C143.705 52.8667 143.887 52.7126 144.064 52.5529C144.852 51.8536 145.559 51.1286 146.186 50.3843C146.794 49.6564 147.322 48.8956 147.771 48.0953L147.921 47.8152C148.052 47.0988 148.237 46.3738 148.469 45.6409C148.688 44.9495 148.946 44.2725 149.244 43.6062L149.25 43.5167C149.298 42.8562 149.264 42.2243 149.142 41.6139C149.02 40.9985 148.83 40.4218 148.572 39.8873C148.313 39.3529 147.995 38.8714 147.62 38.4373C147.229 37.9845 146.763 37.5726 146.226 37.2008C145.665 36.8089 145.023 36.4643 144.305 36.1705ZM100.733 41.6504C100.983 41.3538 101.244 41.0651 101.514 40.7857L101.236 41.0293C100.463 41.7199 99.7392 42.4671 99.0691 43.2702C98.4477 44.0125 97.9084 44.7955 97.4484 45.6215C97.0058 46.416 96.6504 47.2306 96.3837 48.0702L93.1591 58.2233H94.4047L98.306 45.9432C98.5473 45.1816 98.8794 44.4294 99.2966 43.6901C99.6941 42.9908 100.174 42.311 100.733 41.6504ZM113.769 35.4964C113.948 35.4964 114.238 35.505 114.632 35.5215L115.092 35.2105C114.359 35.2471 113.644 35.3202 112.949 35.4319C112.657 35.4792 112.359 35.5358 112.058 35.5974C112.645 35.5301 113.215 35.4964 113.769 35.4964ZM72.8149 58.0019C73.3265 57.9181 73.8454 57.8085 74.3738 57.6745C73.6586 57.7834 72.9769 57.8365 72.3323 57.8365C71.6288 57.8365 70.9042 57.7727 70.1607 57.638C69.4202 57.5091 68.7239 57.3106 68.0713 57.0477C67.4158 56.7819 66.7995 56.4545 66.2319 56.0626C65.6352 55.6514 65.1076 55.1836 64.6533 54.6663C64.1766 54.1233 63.782 53.5358 63.4724 52.9061C63.1628 52.2735 62.9389 51.6043 62.8023 50.9051C62.6635 50.1916 62.6206 49.4694 62.6802 48.7358C62.734 48.0423 62.8764 47.3366 63.1003 46.6231L63.3844 45.7362L61.5784 46.9283L60.9999 48.7501C60.5682 50.107 60.4657 51.35 60.6903 52.4748C60.8037 53.0343 60.9737 53.5494 61.2041 54.0144C61.4338 54.4815 61.7238 54.9149 62.0755 55.3154C62.4476 55.7409 62.8764 56.1213 63.3532 56.4516C63.8554 56.7955 64.4491 57.1093 65.133 57.3887C66.487 57.9461 68.0887 58.2233 69.934 58.2233C70.9355 58.2233 71.8984 58.1502 72.8149 58.0019ZM87.8414 46.6231L91.4752 35.1855H90.0471L85.7381 48.7501C85.5223 49.4329 85.2381 50.0905 84.8834 50.7231C84.5339 51.3529 84.1283 51.9461 83.6654 52.4999C83.3507 52.8831 83.004 53.2528 82.6348 53.611C82.9161 53.3846 83.1945 53.1496 83.467 52.9089C84.2047 52.2541 84.8609 51.585 85.4372 50.8936C86.5637 49.5475 87.3646 48.1261 87.8414 46.6231ZM51.8725 35.4964H55.3959L55.8639 35.1855H39.3047L39.2051 35.4964H47.8724L40.6535 58.2233H41.99L49.2097 35.4964H51.8725ZM55.3305 42.6606H54.5354L47.3157 65.3875H30.7739L37.9958 42.6606H29.3262L33.976 28.0213H79.7191L75.7873 30.6183L70.027 48.7501C69.9674 48.9428 69.9311 49.1169 69.9194 49.2681C69.9078 49.3856 69.9107 49.4859 69.9282 49.5618C69.9449 49.6564 69.9703 49.7352 70.0016 49.7997C70.0357 49.8692 70.0786 49.9336 70.1324 49.9924C70.2065 50.0791 70.2886 50.1522 70.3766 50.2138C70.4929 50.2919 70.6433 50.3707 70.825 50.443C71.0125 50.519 71.2167 50.5777 71.4384 50.6135C71.6542 50.6529 71.9522 50.6723 72.3323 50.6723C72.7298 50.6723 73.0823 50.6472 73.3803 50.6028C73.7008 50.5498 74.0504 50.4652 74.4217 50.3449C74.7967 50.2245 75.1543 50.0819 75.4981 49.9172C75.8469 49.7488 76.1761 49.5647 76.4828 49.3627C76.7699 49.1728 77.0591 48.9486 77.3462 48.6942C77.5904 48.4757 77.823 48.2322 78.0475 47.9664C78.243 47.7314 78.4022 47.5021 78.5243 47.2808C78.6464 47.0651 78.7431 46.8473 78.8106 46.6231L84.7214 28.0213H101.355L99.7253 33.1487C100.92 32.3535 102.164 31.6456 103.456 31.0245C104.747 30.4034 106.092 29.8661 107.489 29.4126C108.883 28.9619 110.314 28.6173 111.784 28.3795C113.272 28.1416 114.723 28.0213 116.143 28.0213C116.872 28.0213 117.613 28.0578 118.368 28.128L119.359 25.0016H135.901L134.104 30.6634L138.016 28.0972H139.098C142.039 28.0972 144.702 28.5865 147.087 29.5666C148.299 30.0645 149.403 30.6606 150.399 31.3519C151.424 32.0597 152.333 32.8743 153.128 33.792C153.761 34.5228 154.303 35.2893 154.757 36.0982C154.934 35.9327 155.11 35.7736 155.288 35.6139C156.293 34.7184 157.4 33.8701 158.61 33.0756C160.977 31.5081 163.527 30.283 166.255 29.3925C169.06 28.4805 171.904 28.0213 174.789 28.0213C177.715 28.0213 180.381 28.5142 182.786 29.4907C184.03 29.9972 185.142 30.5875 186.122 31.2624V31.276C187.16 31.9895 188.078 32.8012 188.873 33.7053C189.687 34.6317 190.36 35.639 190.888 36.7193C191.422 37.8104 191.808 38.961 192.049 40.1667C192.291 41.3954 192.365 42.6577 192.271 43.9451C192.177 45.1988 191.921 46.4748 191.513 47.7679C191.107 49.0439 190.573 50.2754 189.909 51.4589C189.262 52.6145 188.478 53.7428 187.558 54.8425C186.655 55.92 185.699 56.908 184.691 57.8006C183.683 58.6933 182.579 59.5379 181.372 60.336C180.183 61.1219 178.95 61.819 177.676 62.4294C176.396 63.0391 175.067 63.5707 173.69 64.0156C170.865 64.9311 168.032 65.3875 165.193 65.3875C162.221 65.3875 159.544 64.8975 157.159 63.9181C155.972 63.431 154.871 62.8378 153.854 62.135C152.816 61.4164 151.902 60.6076 151.11 59.7063C150.471 58.9784 149.917 58.2033 149.455 57.3837C149.275 57.5485 149.099 57.7111 148.918 57.8701C147.918 58.7606 146.817 59.5996 145.619 60.3919C144.438 61.1728 143.215 61.8642 141.948 62.4652C140.685 63.067 139.356 63.5907 137.96 64.0356C135.135 64.9369 132.293 65.3875 129.438 65.3875C126.493 65.3875 123.822 64.9032 121.426 63.9375C120.194 63.4396 119.086 62.8542 118.107 62.1858C117.068 61.4773 116.154 60.6692 115.357 59.7622C114.556 58.8502 113.888 57.845 113.358 56.7511C112.827 55.6593 112.447 54.5151 112.213 53.323V53.3087C111.975 52.0772 111.907 50.8234 112.009 49.5475C112.109 48.2995 112.364 47.0207 112.779 45.7161L113.75 42.6606C113.267 42.6634 112.821 42.6942 112.415 42.7616C111.995 42.8282 111.538 42.9428 111.05 43.1026C110.567 43.2595 110.104 43.4443 109.662 43.6571H109.647C109.199 43.872 108.779 44.107 108.387 44.3678C108.012 44.6135 107.64 44.9022 107.271 45.2296H107.257C106.91 45.5348 106.59 45.8622 106.297 46.2119C106.036 46.5199 105.815 46.8359 105.627 47.1604C105.465 47.4462 105.335 47.7507 105.233 48.0702L99.7312 65.3875H83.2795L84.693 60.94C82.5978 62.2639 80.355 63.3163 77.9705 64.0915C76.682 64.5113 75.3505 64.8301 73.9791 65.0515C72.5997 65.275 71.248 65.3875 69.934 65.3875C67.1461 65.3875 64.6163 64.9225 62.351 63.9933C61.2267 63.532 60.1794 62.9667 59.2114 62.3005C58.2201 61.6177 57.3487 60.8454 56.5965 59.9886C55.8188 59.1074 55.1771 58.1502 54.6742 57.12C54.1662 56.0877 53.797 54.9966 53.5644 53.846C53.1044 51.5485 53.2723 49.1391 54.0724 46.6231L55.3305 42.6606Z" fill="#EC008C"/>
</g>
<mask id="mask1_43_94" style="mask-type:luminance" maskUnits="userSpaceOnUse" x="0" y="0" width="515" height="96">
<path d="M0 0H514.815V95.1542H0V0Z" fill="white"/>
</mask>
<g mask="url(#mask1_43_94)">
<path fill-rule="evenodd" clip-rule="evenodd" d="M401.927 52.2928H406.435L411.519 37.8247H398.327L398.177 38.2582H410.839L406.697 50.0483H394.032L393.246 52.2928H401.927ZM356.127 52.2928H360.635L365.72 37.8247H364.936L362.378 39.456L360.652 40.6123H361.013L351.335 46.7577C349.728 47.8152 348.127 48.8762 346.52 49.9394H346.682L343.062 52.2928H356.127ZM303.996 48.1261L302.531 52.2928H302.665L312.833 45.8952L313.955 45.1594H313.634L320.555 40.7936L320.825 40.6123H320.845L321.387 40.2677H321.305L325.129 37.8247H307.616L303.996 48.1261ZM189.75 62.2754L202.295 26.5748H234.903L225.866 52.2928H239.059L245.878 32.8879C246.905 29.5021 250.309 26.7675 253.75 26.5748H304.652L310.318 29.664L311.405 26.5748H465.72C471.316 26.678 475.341 30.624 474.7 33.5936L469.777 47.6024C467.843 50.6135 467.809 51.4116 463.128 52.4024L462.697 52.4941H461.076C461.493 53.2979 466.404 62.2754 466.359 62.2754L467.194 63.8142H436.366L434.756 60.8454L433.711 63.8142H189.211L189.75 62.2754Z" fill="#EC008C"/>
</g>
<path d="M121.402 29.1805L120.261 32.743C121.467 33.0489 122.586 33.46 123.614 33.98L119.29 36.8446V59.4521C120.136 60.0582 121.093 60.5746 122.166 61.0057C124.099 61.7811 126.317 62.1673 128.816 62.1673C131.315 62.1673 133.785 61.7811 136.233 61.0057C138.677 60.2303 140.929 59.169 142.985 57.8181C145.043 56.4708 146.835 54.8895 148.362 53.0777C149.356 51.8997 150.169 50.6662 150.796 49.3794C150.901 48.6595 151.074 47.9261 151.316 47.1727C151.367 47.012 151.42 46.8477 151.48 46.6897V39.4233C151.06 38.4146 150.486 37.492 149.757 36.6583C148.567 35.2967 147.008 34.224 145.078 33.4351C143.146 32.6484 140.946 32.2543 138.479 32.2543L127.072 39.6758H136.014C137.277 39.6758 138.402 39.8764 139.39 40.2762C140.375 40.6767 141.165 41.2123 141.764 41.8881C142.36 42.5632 142.752 43.3635 142.936 44.2889C143.121 45.2116 143.047 46.1975 142.712 47.2481C142.383 48.2732 141.832 49.2435 141.059 50.1547C140.287 51.066 139.385 51.8577 138.357 52.5335C137.326 53.2086 136.19 53.7449 134.949 54.1447C133.708 54.5452 132.456 54.7451 131.19 54.7451C129.957 54.7451 128.853 54.5452 127.881 54.1447C126.913 53.7449 126.13 53.2086 125.531 52.5335C124.935 51.8577 124.543 51.066 124.352 50.1547C124.162 49.2435 124.233 48.2732 124.56 47.2481L130.341 29.1805H121.402ZM169.323 32.6818V39.9319C170.138 39.7619 170.953 39.6758 171.774 39.6758C173.009 39.6758 174.113 39.8764 175.085 40.2762C176.053 40.6767 176.836 41.2123 177.435 41.8881C178.032 42.5632 178.424 43.3549 178.614 44.269C178.804 45.181 178.736 46.1477 178.406 47.1727C178.071 48.2234 177.515 49.2101 176.737 50.1348C175.959 51.0603 175.056 51.8577 174.028 52.5335C173.001 53.2086 171.87 53.7449 170.644 54.1447C170.203 54.2891 169.767 54.4058 169.323 54.4975V61.6808C170.203 61.4972 171.081 61.2667 171.955 60.9858C174.403 60.1997 176.669 59.1242 178.744 57.7626C180.82 56.4011 182.62 54.8148 184.151 53.003C185.678 51.1912 186.774 49.2485 187.439 47.1727C188.095 45.1248 188.24 43.1856 187.876 41.3624C187.51 39.5399 186.727 37.9479 185.522 36.5864C184.315 35.222 182.742 34.1465 180.797 33.3597C178.85 32.5737 176.643 32.1789 174.173 32.1789C172.546 32.1789 170.927 32.346 169.323 32.6818ZM108.003 33.3796C105.519 34.1799 103.227 35.2718 101.126 36.6583C99.0274 38.0447 97.1985 39.6651 95.6458 41.5125C94.0896 43.3635 92.9709 45.3503 92.2919 47.4729L91.6872 49.3602V62.1673H96.4403L101.143 47.4729C101.486 46.4002 102.069 45.3809 102.886 44.4191C103.707 43.4552 104.661 42.6187 105.745 41.9073C106.833 41.1931 108.014 40.6319 109.289 40.2207C110.564 39.8095 111.851 39.6011 113.142 39.6011C113.474 39.6011 113.79 39.6011 114.088 39.6203C114.383 39.6423 114.656 39.6786 114.903 39.7512L118.855 37.1334L119.29 35.7747V32.5288C118.1 32.2955 116.842 32.1788 115.519 32.1788C112.992 32.1788 110.485 32.5794 108.003 33.3796ZM91.6872 32.1788V44.986L95.7876 32.1788H91.6872ZM86.7552 32.1788L81.6444 48.1479C81.3573 49.0485 80.8833 49.8908 80.2277 50.6797C79.5691 51.4664 78.7826 52.1578 77.8682 52.7582C76.9537 53.3586 75.9681 53.8252 74.9119 54.1646C73.8557 54.5032 72.7857 54.6725 71.7005 54.6725C70.6159 54.6725 69.6564 54.5032 68.8162 54.1646C67.9751 53.8252 67.2882 53.3586 66.7598 52.7582C66.2291 52.1578 65.8853 51.4664 65.7319 50.6797C65.5764 49.8908 65.644 49.0485 65.9311 48.1479L69.2901 37.6534L61.734 42.6101V60.4138C62.1687 60.65 62.6259 60.8663 63.1086 61.0612C64.92 61.8003 66.9844 62.1673 69.3017 62.1673C71.6183 62.1673 73.9211 61.8003 76.2043 61.0612C78.4868 60.3249 80.5998 59.3191 82.5414 58.0465C84.4866 56.771 86.1737 55.2843 87.6042 53.5834C89.0384 51.8854 90.0604 50.0743 90.6768 48.148L91.6872 44.986V32.1788H86.7552ZM61.734 32.1788V35.7384L67.1603 32.1788H61.734ZM36.0005 32.1788L33.6265 39.6011H42.2954L35.0752 62.1673H44.016L51.2369 39.6011H55.8425L61.734 35.7384V32.1788H36.0005ZM119.29 35.7747L120.261 32.7458C120.13 32.7123 119.997 32.6789 119.863 32.6483C119.673 32.6071 119.483 32.5622 119.29 32.5267V35.7747ZM166.776 33.3597C164.343 34.1465 162.085 35.222 160.01 36.5864C157.931 37.9479 156.129 39.5399 154.595 41.3624C153.601 42.549 152.789 43.7832 152.165 45.0643C152.059 45.7778 151.889 46.5062 151.651 47.2481C151.596 47.4203 151.54 47.5896 151.48 47.7596V54.9869C151.903 55.9985 152.488 56.9232 153.232 57.7626C154.436 59.1242 156.004 60.1997 157.934 60.9858C159.865 61.7725 162.08 62.1673 164.579 62.1673C166.163 62.1673 167.747 62.0058 169.323 61.6808V54.4975C168.534 54.6647 167.744 54.7451 166.952 54.7451C165.689 54.7451 164.564 54.5452 163.579 54.1447C162.591 53.7478 161.801 53.2086 161.202 52.5335C160.606 51.8605 160.214 51.0603 160.03 50.1348C159.845 49.2101 159.919 48.2234 160.254 47.1756C160.584 46.1505 161.134 45.181 161.907 44.269C162.682 43.3578 163.582 42.5632 164.61 41.8881C165.641 41.2152 166.776 40.6767 168.017 40.2762C168.452 40.1375 168.888 40.0208 169.323 39.9319V32.6818C168.471 32.8625 167.622 33.088 166.776 33.3597ZM118.855 37.1334L115.618 47.2481C114.954 49.3239 114.8 51.2659 115.153 53.0777C115.505 54.8895 116.279 56.4708 117.472 57.8181C118.006 58.4213 118.611 58.9662 119.29 59.4521V36.8446L118.855 37.1334ZM151.48 46.6897C151.676 46.1391 151.903 45.5978 152.165 45.0643C152.347 43.8109 152.321 42.6023 152.088 41.4378C151.949 40.7322 151.745 40.0592 151.48 39.4233V46.6897ZM57.8611 45.1504L56.9016 48.148C56.2852 50.0743 56.1493 51.8854 56.4924 53.5834C56.8362 55.2843 57.5747 56.771 58.7022 58.0465C59.5279 58.9798 60.539 59.7686 61.734 60.4167L61.734 42.6101L57.8611 45.1504ZM150.796 49.3794C150.611 50.6406 150.637 51.847 150.872 53.003C151.012 53.6973 151.216 54.3588 151.48 54.9869V47.7596C151.282 48.3066 151.054 48.8487 150.796 49.3794ZM87.5904 62.1673H91.6872V49.3602L87.5904 62.1673Z" fill="url(#paint0_linear_43_94)"/>
<path d="M416.598 29.1805L416.439 29.6382H461.733L461.596 29.1805H416.598ZM370.702 29.1805L370.542 29.6382H409.302L409.461 29.1805H370.702ZM312.316 29.1805L312.156 29.6382H363.404L363.567 29.1805H312.316ZM252.545 29.1805C251.877 29.3949 251.459 29.5477 251.293 29.6382H302.741L301.91 29.1805H252.545ZM202.981 29.1805L202.822 29.6382H228.197L228.356 29.1805H202.981ZM415.785 31.5138L415.577 32.1105H465.713C465.667 32.0489 467.021 31.9722 466.987 31.8817C466.953 31.7882 466.893 31.6666 466.816 31.5138H415.785ZM369.891 31.5138L369.683 32.1105H408.439L408.647 31.5138H369.891ZM311.505 31.5138L311.298 32.1105H362.546L362.753 31.5138H311.505ZM248.46 31.5138C248.295 31.6043 248.104 31.7745 247.888 32.02L247.857 32.1105H304.06C304.035 31.8027 304.007 31.6043 303.972 31.5138L248.46 31.5138ZM202.168 31.5138L201.96 32.1105H227.338L227.546 31.5138H202.168ZM444.397 33.8955C444.497 33.9861 444.542 34.0939 444.534 34.2156C444.521 34.3402 444.525 34.4756 444.54 34.6284H468.18L468.432 33.8955H444.397ZM414.957 33.8955L414.701 34.6284H438.787L438.932 34.2156C438.944 34.1845 439.046 34.0766 439.242 33.8955H414.957ZM369.06 33.8955L368.804 34.6284H407.563L407.82 33.8955H369.06ZM310.675 33.8955L310.422 34.6284H361.67L361.923 33.8955H310.675ZM273.602 33.8955L277.886 34.1251C278.258 34.1845 278.467 34.351 278.501 34.6284H303.284L303.537 33.8955H273.602ZM247.234 33.8955L246.981 34.6284H272.157L272.808 33.8955H247.234ZM201.34 33.8955L201.084 34.6284H226.459L226.715 33.8955H201.34ZM444.061 36.2744L443.777 37.0977H468.358L468.645 36.2744H444.061ZM414.126 36.2744L413.839 37.0977H437.928L438.215 36.2744H414.126ZM368.232 36.2744L367.945 37.0977H393.32L393.607 36.2744H368.232ZM331.256 36.2744L329.979 37.0977H358.33L359.607 36.2744H331.256ZM277.929 36.2744L277.642 37.0977H302.422L302.71 36.2744H277.929ZM246.406 36.2744L246.119 37.0977H271.298L271.585 36.2744H246.406ZM200.512 36.2744L200.222 37.0977H225.6L225.887 36.2744H200.512ZM443.248 38.6083L442.915 39.57H467.499L467.832 38.6083H443.248ZM413.313 38.6083L412.98 39.57H437.066L437.402 38.6083H413.313ZM367.419 38.6083L367.083 39.57H392.461L392.797 38.6083H367.419ZM327.669 38.6083L326.244 39.57H354.695L356.12 38.6083H327.669ZM277.115 38.6083L276.779 39.57H301.56L301.896 38.6083H277.115ZM245.593 38.6083L245.257 39.57H270.436L270.771 38.6083H245.593ZM199.699 38.6083L199.363 39.57H224.738L225.073 38.6083H199.699ZM442.42 40.9901L442.053 42.0423H466.637L467.004 40.9901H442.42ZM412.485 40.9901L412.118 42.0423H436.204L436.571 40.9901H412.485ZM366.591 40.9901L366.224 42.0423H404.286L404.653 40.9901H366.591ZM324.065 40.9901L322.41 42.0423H350.959L352.512 40.9901H324.065ZM244.765 40.9901L244.398 42.0423H300.701L301.068 40.9901H244.765ZM198.868 40.9901L198.501 42.0423H223.879L224.246 40.9901H198.868ZM441.592 43.369L441.257 44.3306L440.895 44.5117H465.775L466.174 43.3689L441.592 43.369ZM411.657 43.369L411.256 44.5146H435.345L435.743 43.369H411.657ZM365.76 43.369L365.362 44.5146H403.428L403.825 43.369H365.76ZM320.361 43.369L318.674 44.5146H347.224L349.008 43.369H320.361ZM243.934 43.369L243.536 44.5146H299.839L300.237 43.369H243.934ZM198.04 43.369L197.642 44.5146H223.017L223.415 43.369H198.04ZM438.696 45.7029L435.971 46.9847H464.063L464.509 45.7029H438.696ZM410.843 45.7029L410.397 46.9847H434.483L434.93 45.7029H410.843ZM364.947 45.7029L364.5 46.9847H402.565L403.012 45.7029H364.947ZM316.871 45.7029L314.939 46.9847H343.486L345.42 45.7029H316.871ZM243.12 45.7029L242.674 46.9847H298.98L299.424 45.7029H243.12ZM197.226 45.7029L196.78 46.9847H222.155L222.602 45.7029H197.226ZM410.013 48.0818L409.535 49.4569H460.882C462.31 49.1513 464.697 48.0818 464.137 48.0818H410.013ZM364.119 48.0818L363.641 49.4569H389.016L389.494 48.0818H364.119ZM313.266 48.0818L311.104 49.4569H339.751L341.816 48.0818H313.266ZM273.815 48.0818L273.338 49.4569H298.118L298.596 48.0818H273.815ZM242.293 48.0818L241.815 49.4569H266.994L267.472 48.0818H242.293ZM196.398 48.0818L195.918 49.4569H221.296L221.774 48.0818H196.398ZM408.676 51.9292H455.559L454.865 50.5091C455.702 50.5091 423.679 50.4635 409.185 50.4635L408.676 51.9292ZM363.288 50.4635L362.779 51.9292H388.157L388.666 50.4635H363.288ZM309.562 50.4635L307.369 51.9292H336.115L338.311 50.4635H309.562ZM272.984 50.4635L272.475 51.9292H297.256L297.768 50.4635H272.984ZM241.462 50.4635L240.953 51.9292H266.132L266.641 50.4635H241.462ZM195.568 50.4635L195.059 51.9292H220.434L220.943 50.4635H195.568ZM432.756 52.7975L433.686 54.3986H456.88L456.052 52.7975H432.756ZM408.372 52.7975L407.814 54.3986H431.9L432.461 52.7975H408.372ZM362.475 52.7975L361.92 54.3986H387.295L387.853 52.7975H362.475ZM305.975 52.7975L303.535 54.3986H332.38L334.821 52.7975H305.975ZM272.174 52.7975L271.614 54.3986H296.397L296.954 52.7975H272.174ZM240.651 52.7975L240.094 54.3986H265.27L265.83 52.7975H240.651ZM194.754 52.7975L194.197 54.3986H219.574L220.132 52.7975H194.754ZM434.107 55.1763L435.007 56.8708H458.199L457.304 55.1763H434.107ZM407.544 55.1763L406.952 56.8708H431.041L431.63 55.1763H407.544ZM361.646 55.1763L361.058 56.8708H399.815L400.406 55.1763H361.646ZM303.264 55.1763L302.672 56.8708H353.92L354.513 55.1763H303.264ZM271.343 55.1763L270.755 56.8708H295.535L296.127 55.1763H271.343ZM239.82 55.1763L239.232 56.8708H264.411L264.999 55.1763H239.82ZM193.927 55.1763L193.335 56.8708H232.094L232.686 55.1763H193.927ZM435.28 57.5103L436.326 59.3431H459.523L458.472 57.5103H435.28ZM406.73 57.5103L406.093 59.3431H430.179L430.816 57.5103H406.73ZM360.836 57.5103L360.196 59.3431H398.955L399.593 57.5103H360.836ZM302.45 57.5103L301.81 59.3431H353.061L353.698 57.5103H302.45ZM270.532 57.5103L269.892 59.3431H294.675L295.313 57.5103H270.532ZM239.01 57.5103L238.37 59.3431H263.548L264.186 57.5103H239.01ZM193.113 57.5103L192.476 59.3431H231.235L231.872 57.5103H193.113ZM436.631 59.892L437.171 60.8986H460.367L459.824 59.892H436.631ZM405.902 59.892L405.55 60.8986H429.639L429.988 59.892H405.902ZM360.005 59.892L359.655 60.8986H398.412L398.765 59.892H360.005ZM301.62 59.892L301.27 60.8986H352.518L352.868 59.892H301.62ZM269.701 59.892L269.352 60.8986H294.132L294.483 59.892H269.701ZM238.179 59.892L237.829 60.8986H263.005L263.358 59.892H238.179ZM192.285 59.892L191.932 60.8986H230.692L231.042 59.892H192.285Z" fill="url(#paint1_linear_43_94)"/>
<defs>
<linearGradient id="paint0_linear_43_94" x1="110.849" y1="29.1814" x2="110.849" y2="62.1669" gradientUnits="userSpaceOnUse">
<stop stop-color="#6681C9"/>
<stop offset="0.577767" stop-color="#263E86"/>
<stop offset="1" stop-color="#263E86"/>
</linearGradient>
<linearGradient id="paint1_linear_43_94" x1="330.29" y1="60.898" x2="330.29" y2="29.1808" gradientUnits="userSpaceOnUse">
<stop stop-color="#6681C9"/>
<stop offset="0.577767" stop-color="#263E86"/>
<stop offset="1" stop-color="#263E86"/>
</linearGradient>
</defs>
</svg>
