<svg width="192" height="202" viewBox="0 0 192 202" fill="none" xmlns="http://www.w3.org/2000/svg">
<path d="M66.8014 166.153C66.7914 166.093 66.7814 166.033 66.7614 165.973V165.943C66.6414 165.385 66.5115 164.976 66.4615 164.827C61.8135 165.515 57.1654 166.202 52.5273 166.89C52.7073 167.419 52.8872 167.957 53.0571 168.496H53.0671V168.515C53.0671 168.515 53.0471 168.555 53.0371 168.585C52.7972 169.183 52.3674 170.559 52.8972 172.015C52.9872 172.284 53.2271 172.912 53.7668 173.401C54.4965 174.079 55.696 174.408 59.1946 173.74C63.003 173.012 64.9022 172.643 65.8718 171.427C67.1912 169.762 67.0713 167.558 66.8014 166.153ZM65.0921 168.506C64.6023 169.413 63.5027 169.911 62.5931 170.27C61.7235 170.609 60.8239 170.878 59.9142 171.058C59.4944 171.147 58.175 171.476 58.4948 170.569C58.6748 170.041 59.1446 170.051 59.6144 169.941C60.1641 169.812 60.7039 169.662 61.2337 169.473C62.1633 169.154 63.0629 168.755 63.9126 168.266C64.2824 168.057 65.5919 167.578 65.0921 168.506Z" fill="#231F20"/>
<path d="M157.415 165.136C157.375 165.824 156.485 166.532 155.236 167.15C155.146 167.21 155.056 167.249 154.966 167.279C154.946 167.299 154.936 167.299 154.916 167.299C154.806 167.359 154.686 167.409 154.576 167.449C154.466 167.509 154.356 167.558 154.236 167.588C153.187 168.007 152.017 168.366 150.887 168.605C150.867 168.605 150.857 168.615 150.838 168.615C150.768 168.625 150.698 168.645 150.618 168.655C150.548 168.675 150.478 168.685 150.408 168.695C149.828 168.815 149.278 168.884 148.778 168.924H148.768C148.528 168.944 148.299 168.954 148.079 168.954C144.96 168.954 145.5 162.763 145.5 162.763C144.06 160.43 142.421 155.525 142.421 155.525C139.762 155.016 139.722 152.325 139.722 152.325C138.942 152.285 136.773 149.733 135.914 147.788C135.044 145.844 131.586 140.231 128.877 138.507C126.178 136.782 121.2 127.61 121.2 126.423C121.2 125.386 118.221 122.874 116.542 119.873C116.312 119.464 116.102 119.056 115.932 118.637C115.932 118.637 115.912 118.577 115.902 118.557C114.663 115.417 105.736 103.104 103.637 100.223C103.357 99.8338 103.197 99.6144 103.197 99.6144C103.197 99.6144 101.678 97.6703 99.8988 96.7431C98.1196 95.816 96.9401 98.3483 93.5515 100.711C90.1729 103.074 88.3837 109.485 88.3837 109.485C88.3837 109.485 88.2837 110.013 87.7339 110.801C87.7239 110.811 87.7139 110.82 87.7039 110.84C87.4041 111.239 86.9943 111.708 86.4045 112.206C84.6452 113.672 84.7852 115.287 84.1854 116.075C83.5857 116.852 83.1658 118.378 82.706 119.345C82.2462 120.312 82.2862 122.106 81.3666 122.804C80.437 123.492 80.347 125.935 79.7473 126.812C79.1475 127.689 79.0576 130.311 77.6682 135.197C76.2787 140.082 74.9893 137.689 73.5599 143.631C72.9501 146.123 72.3804 147.29 71.9506 147.968C71.4907 148.686 71.1009 149.094 70.7111 149.762C70.6511 149.862 70.5611 150.191 70.3012 150.55C70.1913 150.72 70.0713 150.849 69.9714 150.949C69.9314 150.989 69.8914 151.029 69.8514 151.058C69.8514 151.108 69.8614 151.208 69.8614 151.338C69.9114 152.315 70.0613 155.216 70.1013 155.984C70.1813 157.748 70.2613 159.523 69.9814 161.766C69.7915 163.212 69.5116 164.368 68.592 165.156C68.0622 165.604 67.5224 165.784 67.2425 165.844C67.0826 165.874 66.9227 165.913 66.7627 165.943C66.6928 165.963 66.6228 165.973 66.5528 166.003C66.5428 166.003 66.5328 166.003 66.5228 166.013C64.2438 166.601 62.1347 167.798 61.275 168.665C60.9552 168.984 59.9156 169.124 58.6661 169.134C58.6561 169.144 58.6461 169.144 58.6361 169.134C56.637 169.154 54.118 168.855 53.0685 168.496H53.0585C52.8286 168.416 52.6686 168.336 52.5987 168.256C52.0589 167.568 49.9997 166.023 52.5587 163.062C55.1076 160.111 58.6261 157.2 58.8061 153.601C58.986 150.042 56.2171 151.557 58.4062 148.297C58.4362 148.267 58.4562 148.227 58.4862 148.187C58.4862 148.187 58.4762 148.157 58.4562 148.088C58.3163 147.649 57.8664 145.665 59.2159 141.817C60.7652 137.4 61.425 131.817 61.7048 130.551C61.9647 129.414 62.9643 126.024 63.3142 124.609C63.3242 124.569 63.3541 124.419 63.3941 124.23C64.0139 121.518 64.3737 119.883 64.5437 118.098C64.7436 115.895 64.4237 115.805 64.8035 114.599C65.1534 113.492 65.6832 112.755 66.2929 111.897C66.9526 110.98 68.0022 109.704 69.6015 108.418C69.6015 108.418 67.3425 108.767 70.4412 100.402C73.5399 92.0474 77.4882 83.254 77.4882 83.254C72.1405 76.2154 70.6711 72.9154 70.4512 71.2305C70.4212 70.9513 70.3012 69.8048 69.7715 68.3692C69.1217 66.6344 68.2521 65.4979 67.9922 65.1489C67.0026 63.793 65.6932 61.2707 64.2938 56.1462C64.3137 56.2758 64.3337 56.4453 64.3537 56.6347C64.3837 56.9438 64.3737 57.2728 64.2238 57.3526C64.2238 57.3526 64.7736 59.2368 64.6636 60.5229C64.5437 61.7991 66.4129 62.9057 66.7727 64.5109C67.1426 66.106 66.6528 65.8069 66.6528 65.8069C66.6528 65.8069 70.0613 70.0939 66.8227 72.377C63.5841 74.6701 61.8648 69.6852 61.8648 69.6852C61.8648 69.6852 60.9951 69.4359 60.4953 69.9145C60.1955 70.1936 60.1655 70.5725 60.1455 70.742C59.9856 72.2374 62.2946 74.5504 62.5645 74.8296C60.6753 75.3779 59.0859 75.3281 57.7365 74.8695C52.4187 73.055 50.9094 63.5538 50.7594 62.2677C50.7294 62.0583 50.6995 61.6994 50.5395 61.2208C49.9798 59.6356 48.8502 59.506 48.3704 58.2797C48.0306 57.4423 48.0006 56.0565 48.8602 55.3785C49.5699 54.8202 50.7594 54.8701 51.769 55.5381C51.9389 54.6009 52.1888 53.3746 52.6087 51.9689C52.8885 50.9918 53.3283 49.5163 54.188 47.7118C54.4779 47.0937 55.4675 45.0698 57.2667 42.7369C57.5266 42.4079 58.5562 41.1018 60.1955 39.5067C62.1147 37.6523 64.2638 35.5586 67.6424 34.2127C69.7515 33.3753 70.781 33.0363 72.0905 33.2955C75.8089 34.0233 77.4582 38.7589 77.4582 38.7589C77.8481 38.1607 79.6473 36.5656 80.367 35.9375C80.547 35.778 80.8068 35.768 80.9968 35.9175L82.4262 36.9644C83.0959 36.6952 84.0455 36.3961 85.225 36.2665C86.4145 36.1468 87.4341 36.2465 88.1438 36.3861C88.4636 36.087 88.8335 35.778 89.2633 35.4888C89.7131 35.1798 89.933 35.0103 90.063 34.9604C91.7323 34.3922 96.5602 43.1157 96.5602 43.1157L96.8901 42.5175C99.1192 44.5713 97.7797 47.8713 97.7797 47.8713C97.7797 47.8713 103.397 49.287 108.765 52.6369C114.133 55.9867 113.553 60.503 114.223 61.4202C114.893 62.3474 120.43 69.416 121.43 71.1208C122.419 72.8257 121.29 76.0658 122.239 77.4118C123.179 78.7577 125.468 86.235 125.468 86.235C129.716 87.9299 130.896 100.861 132.525 106.005C134.164 111.159 132.855 111.548 132.855 111.548C132.855 111.548 135.014 114.649 137.303 116.663C139.602 118.687 138.383 120.372 141.961 126.493C145.54 132.614 150.418 146.253 150.418 146.253C152.887 146.951 151.047 149.912 151.047 149.912C153.896 152.993 155.386 158.366 155.386 158.366C157.295 160.978 157.525 163.311 157.415 165.136Z" fill="#231F20"/>
<path d="M77.4878 83.4035C78.2974 85.8262 79.1871 88.4183 80.8564 90.3425C83.8851 92.8748 88.4232 94.5597 92.3216 93.2736C94.6106 92.7552 96.9296 94.0413 99.2287 93.3235C100.488 93.0941 101.658 92.4361 102.567 91.479C101.828 92.5757 100.648 93.3833 99.3486 93.792C98.0392 94.1908 96.6597 94.2506 95.3103 94.131C94.3707 94.0114 93.4611 93.8519 92.5415 94.1509C89.5927 95.2975 86.3341 94.5497 83.6152 93.1938C82.4057 92.5458 81.1662 91.9377 80.2666 90.841C78.5873 88.6177 77.9076 85.9857 77.4678 83.3936L77.4878 83.4035Z" fill="white"/>
<path d="M96.5596 74.2412C97.6191 78.8871 98.8286 83.6028 100.818 87.9297C101.717 90.1231 103.437 91.7083 105.126 93.4928C106.755 95.1977 107.245 96.8028 105.216 98.4379C104.776 98.8566 104.316 99.2554 103.847 99.6342L105.026 98.2584C106.565 96.6134 106.206 95.5067 104.576 94.0213C102.797 92.4161 100.878 90.6216 99.9182 88.3584C97.899 83.9119 96.8694 79.0865 96.5596 74.2412Z" fill="white"/>
<path d="M154.395 173.471C153.396 173.511 152.806 172.564 152.286 171.846C151.676 171.008 151.147 170.111 150.667 169.194C150.577 169.024 150.487 168.865 150.407 168.695C150.407 168.695 150.387 168.655 150.377 168.635L154.285 166.073C154.525 166.472 154.755 166.871 154.965 167.28C155.065 167.449 155.155 167.619 155.245 167.778C155.515 168.277 155.775 168.765 156.035 169.264C156.264 169.682 156.484 170.111 156.574 170.58C156.774 171.716 155.595 173.421 154.395 173.471Z" fill="#231F20"/>
<path d="M78.9768 56.0264C79.9864 59.3464 82.9151 66.5944 87.0234 66.3352C88.063 66.2454 88.9926 65.5476 89.7623 64.6902C92.1413 62.0681 93.9805 58.818 94.1604 55.189C94.5803 58.9376 92.841 62.4868 90.462 65.3183C89.6523 66.2554 88.5328 67.1627 87.1234 67.3222C82.1655 67.6113 79.4566 60.0143 78.9668 56.0165L78.9768 56.0264Z" fill="white"/>
<path d="M77.4577 38.8984C76.768 40.5833 75.8384 42.328 75.5285 44.1226C75.4285 44.641 74.8288 44.0827 74.5189 44.4516C74.0091 45.1694 74.309 46.2162 74.439 47.0737C74.8088 49.4963 76.0083 51.5301 77.8575 53.0455C78.6672 53.7335 79.7267 53.9129 80.7463 54.1422C82.8854 54.6008 85.1045 54.7205 87.2936 54.5809C91.7017 54.3017 96.2798 52.5271 97.7692 48.0108C96.7596 52.8661 91.9017 55.0495 87.3735 55.4682C85.0945 55.6975 82.7855 55.5679 80.5364 55.1193C79.3969 54.86 78.1474 54.6008 77.2378 53.7933C75.7684 52.4872 74.5989 51.0017 74.1091 49.2072C73.7692 47.7915 72.5797 43.1356 75.3686 43.8734L74.9987 44.1027C75.4385 42.1885 76.5181 40.5933 77.4477 38.8984H77.4577Z" fill="white"/>
<path d="M75.2383 51.4006C75.908 52.5472 76.4978 53.7435 76.9076 55.0097C76.9376 55.1393 76.9676 55.2589 76.9376 55.3985C76.7976 55.7973 76.6977 55.7873 76.6477 55.907C76.3878 56.3456 76.5677 56.8441 76.7876 57.4224C77.4074 58.7683 78.1571 60.3535 79.2566 61.3704C79.4465 61.5 79.5865 61.5598 79.7564 61.4003C79.9163 61.2308 80.0063 60.9517 80.0962 60.6925C80.1262 61.1112 80.1162 61.7792 79.5565 61.8789C78.7368 61.9187 78.1471 61.171 77.6673 60.6825C76.9176 59.8151 76.3278 58.868 75.858 57.7913C75.5981 57.1632 75.3183 56.0765 75.908 55.3786C76.008 55.2589 76.1379 55.0795 76.0779 55.2091C75.848 54.2121 75.4382 52.6369 75.2383 51.4006Z" fill="white"/>
<path d="M93.7007 60.0743C94.7102 58.18 95.9697 56.4054 96.8993 54.5012C96.9593 54.2719 96.9993 54.3417 96.9293 54.1024C96.8593 53.7235 96.5894 53.4743 96.5195 53.0157C96.4795 52.6368 96.7394 52.3577 96.8993 52.1383C97.0792 51.8692 97.2292 51.5601 97.3391 51.2411C97.4891 50.8024 97.649 50.3438 97.5291 49.8652C97.8589 50.274 97.8489 50.8423 97.8189 51.3408C97.7789 51.8293 97.609 52.4175 97.3491 52.8163C97.3091 52.9359 97.3491 52.926 97.4391 53.0855C97.689 53.4843 98.0288 54.0625 97.8589 54.6009C97.0393 56.7843 95.4499 58.5988 93.6807 60.0643L93.7007 60.0743Z" fill="white"/>
<path d="M64.2139 56.2856C63.7339 54.2119 63.0039 52.4273 62.3339 50.3935C61.8539 48.2998 62.3339 46.0466 63.5039 44.282C62.9139 46.2061 62.6039 48.2699 63.0639 50.214C63.6639 52.1083 64.3439 54.2318 64.2139 56.2856Z" fill="white"/>
<path d="M69.6907 108.278C71.6598 105.317 75.9181 103.971 79.1367 105.786C81.8456 107.301 83.7548 109.504 86.5936 110.661C86.9734 110.781 87.4032 110.94 87.8031 110.781C87.4432 111.05 86.9434 110.99 86.5236 110.92C83.5748 110.352 81.1559 108.029 78.6869 106.673C75.6981 105.008 72.1396 106.045 69.6807 108.278H69.6907Z" fill="white"/>
<path d="M117.4 114.938C121.389 111.19 127.686 109.913 132.854 111.698C127.396 111.359 122.248 112.386 117.4 114.938Z" fill="white"/>
<path d="M57.9961 147.798C59.9453 149.104 62.0244 149.892 64.3734 149.752C66.7424 149.693 69.2414 150.291 71.2006 151.667C68.9315 151.039 66.7224 150.67 64.3734 150.749C61.9444 150.879 59.4155 149.762 57.9961 147.798Z" fill="white"/>
<path d="M140.012 152.484C144.22 151.766 148.088 150.051 150.417 146.393C149.408 150.829 144.28 153.282 140.012 152.484Z" fill="white"/>
<path d="M52.3379 56.156C55.2167 58.5089 58.8851 57.9107 62.0738 56.7343C62.5436 56.5548 63.0134 56.3654 63.5232 56.2158C60.6144 59.0074 54.7369 60.1539 52.3479 56.156H52.3379Z" fill="white"/>
<path d="M81.2254 72.1675C81.4153 74.8095 81.8751 77.7107 84.0042 79.4255L85.6335 80.7116C87.2528 82.0675 88.7322 83.6228 89.8917 85.3874C87.7426 83.533 85.6535 81.888 83.3645 80.1932C81.0055 78.269 80.6056 74.9291 81.2254 72.1675Z" fill="white"/>
<path d="M53.0371 168.585C55.2662 169.881 58.105 170.33 60.5739 169.423C62.813 168.466 64.5523 166.91 66.8013 166.153C66.7913 166.093 66.7814 166.033 66.7614 165.973L66.5514 166.003C66.5514 166.003 66.5315 166.003 66.5215 166.013C66.2616 166.043 66.0017 166.103 65.7418 166.183C63.8226 166.731 62.0633 168.007 60.3141 168.715C59.7743 168.914 59.2245 169.054 58.6647 169.134C58.6548 169.144 58.6448 169.144 58.6348 169.134C56.7855 169.423 54.8563 169.104 53.0671 168.505H53.0571L53.0371 168.585Z" fill="white"/>
<path d="M155.245 167.778C153.915 168.695 152.276 169.203 150.667 169.193C150.577 169.024 150.487 168.864 150.407 168.695C149.827 168.815 149.277 168.884 148.777 168.924C149.337 168.864 149.877 168.795 150.407 168.685C150.477 168.685 150.547 168.665 150.617 168.655C150.697 168.655 150.767 168.625 150.836 168.615C150.856 168.615 150.866 168.605 150.886 168.605C152.046 168.376 153.156 168.037 154.235 167.588C154.355 167.558 154.465 167.509 154.575 167.449C154.685 167.409 154.805 167.359 154.915 167.299C154.935 167.299 154.945 167.299 154.965 167.279C155.065 167.449 155.155 167.618 155.245 167.778Z" fill="white"/>
<path d="M123.858 175.584C122.469 171.487 120.449 167.967 118.3 164.189C116.151 160.41 113.852 156.731 111.513 152.963C106.285 144.528 100.948 135.974 95.7598 127.49C95.32 126.782 94.8502 126.005 94.4503 125.337C84.7544 109.335 71.2301 85.1284 62.0139 68.9674C61.5041 68.0801 60.8744 67.8508 60.0447 68.1997C59.2151 68.5487 58.9052 69.4958 59.475 70.5028C67.9414 85.4275 81.8956 110.352 90.532 124.629C99.1684 138.905 106.935 151.108 115.172 164.667C116.251 166.452 116.191 166.581 117.071 168.077C117.241 168.366 117.291 168.476 117.421 168.695C117.811 169.393 118.14 169.991 118.54 170.659C118.17 170.908 117.861 171.098 117.611 171.497C116.741 172.852 117.221 174.517 117.631 175.863C118.31 178.107 119.91 180.639 121.979 180.938C123.068 181.097 123.748 179.831 123.858 179.642C124.678 178.077 124.328 176.95 123.858 175.554V175.584Z" fill="url(#paint0_radial_92_334)" stroke="#F8B61C" stroke-width="0.5" stroke-miterlimit="10"/>
<g opacity="0.84">
<path d="M103.797 164.408V163.58C101.068 162.354 98.7789 160.151 97.4794 157.219C96.2399 154.398 96.12 151.367 96.9396 148.616L96.3099 148.027C95.3203 151.028 95.4003 154.408 96.7697 157.529C98.1991 160.759 100.758 163.142 103.787 164.418L103.797 164.408ZM120.81 156.462L121.409 157.02C122.669 153.84 122.699 150.171 121.209 146.801C119.77 143.541 117.171 141.138 114.102 139.872V140.7C116.871 141.926 119.2 144.139 120.51 147.1C121.869 150.181 121.879 153.521 120.81 156.452V156.462Z" fill="#F8B61C"/>
<path d="M103.786 162.115V161.237C101.897 160.16 100.328 158.496 99.3883 156.372C98.4987 154.368 98.2988 152.225 98.6986 150.211L98.0389 149.602C97.4991 151.886 97.669 154.368 98.6886 156.681C99.7582 159.114 101.597 160.978 103.786 162.115ZM119.13 154.896L119.76 155.485C120.539 152.992 120.459 150.211 119.32 147.628C118.23 145.156 116.361 143.282 114.122 142.155V143.032C116.061 144.099 117.661 145.784 118.61 147.947C119.62 150.231 119.74 152.673 119.13 154.906V154.896Z" fill="#F8B61C"/>
<path d="M103.767 159.453V158.476C102.797 157.688 102.008 156.671 101.468 155.455C100.988 154.368 100.768 153.251 100.778 152.135L100.038 151.457C99.9185 152.883 100.148 154.358 100.768 155.764C101.448 157.299 102.497 158.545 103.767 159.453ZM117.171 153.092L117.851 153.72C118.161 152.035 117.981 150.231 117.231 148.546C116.542 146.98 115.452 145.704 114.133 144.797V145.764C115.142 146.562 115.972 147.609 116.522 148.855C117.131 150.231 117.331 151.686 117.161 153.092H117.171Z" fill="#F8B61C"/>
</g>
<path d="M104.536 154.109C103.456 151.656 104.576 148.795 107.045 147.708C109.504 146.632 112.383 147.738 113.462 150.191C114.542 152.643 113.422 155.525 110.963 156.601C108.504 157.678 105.616 156.562 104.536 154.109Z" fill="#F8B61C"/>
<path d="M104.896 98.8169C104.896 98.8169 101.528 101.768 100.308 107.471C100.308 107.471 98.3189 108.438 97.909 109.504C97.909 109.504 96.6296 107.421 95.4601 109.245C94.2906 111.08 91.9416 113.472 91.6817 114.23C91.4218 114.998 90.972 114.788 90.5122 115.247C90.0523 115.706 86.6338 117.839 86.6838 120.033C86.6838 120.033 84.5446 121.099 84.8945 122.884C84.8945 122.884 82.3955 125.685 88.0532 131.488C93.7208 137.29 96.3197 134.439 96.3197 134.439L94.4205 130.969C94.0607 130.301 94.1606 129.484 94.6904 128.936C96.1798 127.39 99.1885 124.399 100.658 123.911C102.647 123.253 106.376 121.777 106.675 120.651C106.985 119.534 110.404 124.928 112.853 124.978C115.302 125.027 119.69 111.798 119.69 111.798L104.896 98.8169Z" fill="#231F20"/>
<path d="M97.6494 109.495C99.9584 112.645 104.826 121.339 98.1792 122.326C100.858 121.398 101.028 118.766 100.158 116.493C99.4287 114.141 98.4491 111.847 97.6494 109.485V109.495Z" fill="white"/>
<path d="M115.281 68.1099C118.81 74.3609 121.948 81.0407 123.148 88.179C123.858 94.3005 122.088 100.422 120.629 106.294C119.4 110.551 117.97 114.778 115.901 118.697C116.751 116.653 117.48 114.569 118.12 112.465C120.039 106.164 121.559 99.6841 122.248 93.144C122.868 88.837 121.559 84.5201 120.249 80.3627C118.87 76.1754 117.14 72.1077 115.291 68.1099H115.281Z" fill="white"/>
<defs>
<radialGradient id="paint0_radial_92_334" cx="0" cy="0" r="1" gradientUnits="userSpaceOnUse" gradientTransform="translate(108.355 152.115) scale(30.6472 30.5673)">
<stop offset="0.13" stop-color="#FEFEFD"/>
<stop offset="0.27" stop-color="#FDEBC2"/>
<stop offset="0.4" stop-color="#FBDB8F"/>
<stop offset="0.53" stop-color="#FACD66"/>
<stop offset="0.66" stop-color="#F9C345"/>
<stop offset="0.78" stop-color="#F8BC2E"/>
<stop offset="0.9" stop-color="#F8B720"/>
<stop offset="1" stop-color="#F8B61C"/>
</radialGradient>
</defs>
</svg>
