<svg width="192" height="202" viewBox="0 0 192 202" fill="none" xmlns="http://www.w3.org/2000/svg">
<path d="M164.562 167.44C163.352 166.94 161.293 165.18 160.413 164.93C160.393 164.92 160.363 164.92 160.343 164.92C159.983 164.83 159.824 164.97 159.654 165.15C159.444 165.39 159.234 165.68 158.654 165.72C157.564 165.81 155.515 165.22 153.966 161.66C152.417 158.1 149.108 155.79 148.858 153.83C148.858 153.83 146.169 154.91 146.019 150.99C146.009 150.9 146.009 150.81 146.009 150.72C146.009 150.72 145.979 150.69 145.909 150.63C145.37 150.13 142.801 147.7 141.911 145.86C140.901 143.81 124.458 130.51 121.55 122.11C121.55 122.11 120.3 124.19 116.891 122.19C113.483 120.19 103.917 98.7199 100.169 97.6399C96.4301 96.5599 90.3526 106.13 89.2731 107.29C88.6133 108.01 87.6937 108.13 87.094 108.11C86.7141 108.11 86.4443 108.04 86.4443 108.04C86.1744 109.82 85.7346 112.53 85.0748 115.82C84.9049 116.64 84.755 117.36 84.615 118C83.8753 121.35 83.4555 122.53 82.9557 125.18C81.7362 131.66 81.6363 136.97 82.0361 138.33C82.216 138.94 82.326 139.97 82.4259 141.19C82.4959 142.11 82.5559 143.14 82.6259 144.2V144.26L82.6558 144.65C82.8158 147.19 83.0457 149.76 83.6154 151.07C84.605 153.32 85.3347 157.42 83.4755 159.11C83.2956 159.27 83.1256 159.38 82.9757 159.46C82.8957 159.51 82.8358 159.54 82.7758 159.57C82.8458 159.65 82.9257 159.74 82.9957 159.83C83.7554 160.75 84.565 162.06 84.8149 163.73C84.9149 164.43 85.0049 165.07 84.675 165.66C84.2852 166.34 83.2656 166.86 80.8066 167.01C77.2481 167.23 73.6796 167.45 70.1111 167.55C66.5926 167.65 63.054 167.69 59.5655 167.07C58.7359 166.92 57.8162 166.68 57.3464 165.97C57.0466 165.51 56.9866 164.92 57.0865 164.37C57.1165 164.15 57.9762 161.8 58.366 161.2L58.416 161.12C58.416 161.12 58.476 161.06 58.496 161.06C57.2365 160.24 55.5472 158.4 56.8267 156.95C60.4251 152.88 67.6721 155.02 70.5209 149.99C70.9407 149.26 71.1007 148.55 71.1607 148.08C71.1707 148.02 71.1706 147.97 71.1806 147.92C71.1806 147.92 71.1607 147.92 71.1307 147.88C70.7408 147.61 68.032 145.6 68.3518 143.64C68.6817 141.53 68.0719 140.69 67.852 138.24C67.6221 135.8 59.2257 113.37 63.064 107.25C66.9024 101.13 70.4609 98.41 70.4609 98.41C70.4609 98.41 70.4609 97.24 71.3506 96.5099C72.2402 95.7899 74.4093 92.4499 74.4093 92.4499C74.4093 92.4499 75.6888 85.7199 76.0286 84.6099C76.3585 83.4899 74.3593 81.3199 74.9691 79.5999C74.9691 79.5999 67.1823 62.9099 68.012 56.7899C68.012 56.7899 61.5047 57.84 60.5651 59.0099C60.0853 59.5999 59.5555 60.1699 59.2556 60.9899C59.2057 61.0999 59.1757 61.2199 59.1357 61.3399C58.9258 62.0899 58.8958 63.0299 59.1757 64.3499C59.5055 65.9299 59.0357 67.6799 58.5659 69.1799C58.306 70.0199 58.0062 70.8499 57.6563 71.6499C57.3464 72.3999 57.0366 73.2399 56.5468 73.8999C55.1174 75.7799 51.9987 75.0799 50.1195 74.4499C49.3998 74.2099 48.6901 73.9099 47.9904 73.5899C42.4827 71.0299 41.593 66.0799 42.4327 62.3499C43.2623 58.6199 44.3819 59.7899 44.9916 56.7899C45.3615 54.9799 45.0716 54.5699 45.4414 52.9299C45.8313 51.2199 46.361 50.9299 46.521 50.8499C46.9408 50.6499 47.4106 50.7099 47.8704 50.8499C49.8096 51.4699 51.7588 53.2699 52.6084 54.1099C52.6284 54.0599 52.6484 54 52.6784 53.9399L52.7484 53.7599C52.8783 53.4699 53.0482 53.1199 53.2582 52.7299C54.0678 51.2099 54.9974 50.1799 55.7671 49.3799C57.1965 47.9099 60.0553 45.2199 63.9637 41.9299C63.9637 41.9299 64.4335 40.5599 63.7837 40.2699C63.144 39.9899 61.9145 40.5599 62.3344 38.6399C62.5942 37.4399 62.5942 36.5099 62.4343 35.7099C62.3543 35.2699 62.3044 34.8399 62.0245 34.3799C61.4047 33.3799 60.2552 33.0999 59.8554 33.0199C59.5855 33.1299 59.2257 33.2199 58.8558 33.1199C57.2465 32.6999 56.4568 28.9999 57.1765 26.1099C57.5963 24.4099 58.446 23.3399 59.4456 22.0899C59.7055 21.7699 60.0553 21.3399 60.5151 20.8699C61.8745 19.4699 64.1036 17.6399 67.3223 16.5899H67.3323C67.5622 16.5099 67.7921 16.4399 68.002 16.3899H68.012C68.0919 16.3599 68.1519 16.3399 68.2219 16.3299H68.2319C68.3518 16.2899 68.4618 16.2599 68.5717 16.2399H68.5817C69.6313 15.9799 70.441 15.8999 70.8208 15.8599C71.7104 15.7899 73.1098 15.6699 74.6492 15.9299C75.8187 16.1199 77.0582 16.5299 78.2577 17.3299C79.5971 18.2299 80.3968 19.3099 80.7966 19.8699C83.1456 23.1399 82.8558 25.5699 82.5759 28.3499C82.286 31.1199 83.1456 32.3399 83.9953 32.6899C84.8549 33.0499 86.6342 33.6199 88.9132 35.3299C91.1923 37.0399 96.61 37.6099 100.878 43.1699C100.878 43.1699 108.095 53.9699 111.304 58.2999C114.502 62.6199 121.22 69.8599 122.489 73.8899C123.759 77.9199 126.517 78.29 127.037 80.9799C127.487 83.2899 127.327 83.2299 127.267 83.16C127.537 83.95 136.243 109.41 136.243 111.9C136.243 111.9 136.393 112.74 136.773 113.23C137.813 114.57 139.342 115.32 140.432 116.56C142.241 118.62 143.58 121.39 145.08 123.68C147.619 127.56 150.148 131.43 152.687 135.31C154.166 137.58 156.185 141.92 155.565 144.86C155.535 145.01 155.505 145.15 155.455 145.29C155.455 145.29 155.525 145.31 155.635 145.37C156.075 145.58 157.075 146.27 156.425 147.88C156.425 147.88 161.023 154.09 162.482 155.06C163.932 156.03 165.461 158.21 164.661 159.91C164.402 160.45 164.202 160.8 164.052 161.02C163.712 161.49 163.592 161.4 163.592 161.4C163.592 161.4 163.672 161.49 163.802 161.66C164.282 162.29 165.411 163.84 165.771 165.25C166.231 167.05 165.771 167.93 164.552 167.43L164.562 167.44Z" fill="#231F20"/>
<path d="M124.967 170.28C124.967 170.28 124.967 170.23 124.967 170.21C124.947 168.92 124.748 167.64 124.378 166.4C124.178 165.74 123.928 165.09 123.508 164.56C123.158 164.12 122.668 163.75 122.119 163.63C121.529 163.5 121.019 163.85 120.509 164.1C119.97 164.37 119.46 164.58 118.96 164.75C114.892 165.88 112.003 162.84 110.903 161.38C110.853 161.3 110.813 161.25 110.753 161.17C104.326 151.85 98.1786 142.07 91.5814 131.7C89.7921 128.89 86.7434 124.01 84.4544 120.32C79.0866 111.66 72.6793 101.09 67.8913 92.2401C65.3424 87.5401 62.8734 82.8001 60.3645 78.0801C59.4449 76.3501 58.5152 74.6201 57.5756 72.8901C56.636 71.1601 55.7664 69.3601 54.6669 67.7301C54.297 67.1801 53.5773 66.4201 52.8676 66.8901C52.1379 67.3701 51.4982 68.1401 52.2379 69.4501C56.4561 76.9301 60.1046 84.0801 64.3828 92.0801C69.1008 100.9 75.4282 111.41 80.686 119.95C82.975 123.66 86.2736 128.92 87.9329 131.56C90.7917 136.1 93.6105 140.66 96.4793 145.19C99.3481 149.72 102.047 153.93 104.976 158.21C107.735 162.24 110.543 166.36 113.862 169.95C115.102 171.29 116.771 172.19 118.49 172.77C119.92 173.25 121.649 173.71 123.168 173.63C124.728 173.55 124.967 171.45 124.957 170.29L124.967 170.28Z" fill="url(#paint0_radial_92_157)" stroke="#E70684" stroke-width="0.5" stroke-miterlimit="10"/>
<path d="M52.7477 53.77C54.427 56.62 56.3862 59.26 59.255 60.99C59.205 61.1 59.175 61.22 59.135 61.34C55.8064 60.5 53.2975 57.27 52.6777 53.95L52.7477 53.77Z" fill="white"/>
<path d="M66.1322 54.61C63.9731 52.03 60.3246 47.22 62.9735 43.97C61.694 46.75 63.6632 49.5 64.8327 51.99L66.1422 54.62L66.1322 54.61Z" fill="white"/>
<path d="M160.343 164.92C161.223 163.57 162.422 162.5 163.812 161.68L164.061 161.03C162.042 161.61 160.323 163.17 159.653 165.15L160.343 164.92Z" fill="white"/>
<path d="M71 97.2301C72.1495 97.1201 73.5789 97.51 74.1387 98.6C73.0891 98.03 72.0496 97.8201 71 97.2301Z" fill="white"/>
<g opacity="0.84">
<path d="M81.276 138.36V137.53C78.5971 136.24 76.3481 133.99 75.1186 131.01C73.8891 128.03 73.8791 125.11 74.7587 122.37L74.149 121.77C73.0994 124.76 73.0994 128.15 74.4089 131.3C75.7683 134.57 78.2772 137.01 81.276 138.36ZM98.4588 130.74L99.0485 131.32C100.378 128.16 100.488 124.48 99.0685 121.06C97.6491 117.64 95.1502 115.29 92.1115 113.97V114.8C94.8303 116.09 97.1194 118.35 98.3588 121.35C99.6583 124.47 99.5983 127.81 98.4588 130.73V130.74Z" fill="#E70684"/>
<path d="M81.3058 136.06L81.3257 135.18C79.4565 134.06 77.9272 132.36 77.0275 130.21C76.1879 128.18 76.028 126.03 76.4678 124.02L75.8181 123.39C75.2283 125.67 75.3482 128.16 76.3178 130.5C77.3374 132.96 79.1367 134.87 81.3058 136.06ZM96.7993 129.14L97.409 129.74C98.2387 127.25 98.2187 124.47 97.1291 121.86C96.0396 119.25 94.2703 117.44 92.0513 116.26V117.14C93.9405 118.25 95.5098 119.97 96.4194 122.16C97.379 124.47 97.449 126.93 96.7893 129.15L96.7993 129.14Z" fill="#E70684"/>
<path d="M81.3463 133.39L81.3663 132.41C80.4167 131.6 79.647 130.56 79.1372 129.34C78.6774 128.24 78.4875 127.11 78.5175 126L77.7978 125.3C77.6479 126.73 77.8478 128.21 78.4375 129.63C79.0773 131.18 80.1068 132.46 81.3563 133.39H81.3463ZM94.8806 127.29L95.5504 127.93C95.9002 126.24 95.7503 124.44 95.0406 122.73C94.3809 121.14 93.3213 119.84 92.0218 118.9V119.87C92.9914 120.69 93.8011 121.76 94.3309 123.02C94.9106 124.41 95.0806 125.88 94.8806 127.28V127.29Z" fill="#E70684"/>
</g>
<path d="M82.2253 128.05C81.1957 125.57 82.3852 122.72 84.8642 121.69C87.3432 120.66 90.202 121.83 91.2315 124.31C92.2611 126.79 91.0816 129.65 88.6026 130.68C86.1237 131.71 83.2649 130.53 82.2353 128.05H82.2253Z" fill="#E70684"/>
<path d="M74.5387 98.62C74.5387 98.62 72.4396 98.52 73.5291 102.11C74.6187 105.71 73.1293 109.35 73.1293 109.35C73.1293 109.35 72.3596 111.76 72.1697 114.36C72.0497 115.98 72.3796 118.95 74.6686 120.49C77.2476 122.23 80.5462 120.79 80.8361 120.66C80.1364 119.52 79.4267 118.38 78.727 117.24C79.2267 116.13 80.1264 114.36 80.8361 114.49C81.056 114.53 81.1859 114.75 81.2559 114.86C81.8257 115.79 82.7053 117.12 83.8348 118.82C84.4745 118.22 85.1343 117.46 85.704 116.51C88.083 112.55 87.1834 108.21 86.8336 106.83C86.8336 106.83 87.5533 104.43 87.4633 102.73C87.3733 101.03 88.7128 100.33 88.243 99.17C87.7832 98.02 87.4033 98.14 87.4033 98.14C87.4033 98.14 78.2072 97.75 74.5487 98.61L74.5387 98.62Z" fill="#231F20"/>
<path d="M73.4392 102.03C75.3284 106.28 72.6395 110.44 72.4396 114.74C72.3196 116.51 72.2896 118.47 73.5491 119.87C71.9298 118.77 71.6399 116.52 71.6599 114.7C71.5799 110.36 74.3588 106.42 73.4392 102.03Z" fill="white"/>
<path d="M73.5495 102.53C72.6599 101.21 72.7198 98.54 74.8789 98.68C77.9377 98.57 80.9264 98.27 83.9651 97.86C85.1147 97.76 86.3841 97.55 87.4837 98.06C87.8735 98.24 88.1134 98.69 88.0034 99.07C87.9535 98.18 86.9839 98.14 86.3042 98.2C82.4358 98.81 78.5374 99.71 74.5791 99.37C73.0897 99.43 73.2196 101.44 73.5495 102.53Z" fill="white"/>
<path d="M74.689 15.9699L67.2021 17.3699L66.7923 17.4399L66.4125 17.5199L65.8027 17.6299C65.8027 17.6299 66.2126 17.4099 66.8123 17.0899C67.1822 16.8999 67.622 16.6699 68.0818 16.4199C68.1318 16.3899 68.1817 16.3699 68.2217 16.3399H68.2317C68.5016 16.1999 68.7715 16.0499 69.0414 15.8999C69.0414 15.8999 69.0514 15.8999 69.0614 15.8899C70.031 15.3799 70.9506 14.8899 71.3604 14.6699C72.37 14.1299 74.3591 15.6999 74.649 15.9399L74.679 15.9699H74.689Z" fill="#231F20"/>
<path d="M68.4313 16.5499L67.6816 16.9599L66.792 17.4399L66.1923 17.7699L60.5146 20.8799C60.7845 20.5899 64.0532 17.1899 64.8628 16.3399C65.4326 15.7599 66.822 16.0399 67.6816 16.2999C67.8016 16.3299 67.9016 16.3699 68.0015 16.3999H68.0115C68.0115 16.3999 68.0515 16.4199 68.0815 16.4199C68.1514 16.4499 68.2114 16.4699 68.2614 16.4799C68.3714 16.5299 68.4313 16.5499 68.4313 16.5499Z" fill="#231F20"/>
<path d="M69.0417 15.8999C68.8818 16.0099 68.7318 16.1199 68.5819 16.2499H68.5719C68.462 16.3199 68.362 16.3999 68.262 16.4799C68.0621 16.6299 67.8722 16.7899 67.6823 16.9599C67.5223 17.0799 67.3624 17.2199 67.2025 17.3699C66.3428 18.1299 65.5432 18.9799 64.8135 19.8999C65.1833 19.1399 65.6431 18.4199 66.1929 17.7699C66.2629 17.6899 66.3328 17.5999 66.4128 17.5199C66.5328 17.3699 66.6727 17.2299 66.8126 17.0899C66.9726 16.9199 67.1425 16.7599 67.3224 16.5999H67.3324C67.4424 16.4899 67.5623 16.3899 67.6823 16.2999C67.8022 16.3299 67.9022 16.3699 68.0021 16.3999H68.0121C68.0921 16.3699 68.1521 16.3499 68.2221 16.3399H68.2321C68.5019 16.1999 68.7718 16.0499 69.0417 15.8999Z" fill="white"/>
<path d="M65.7524 164.46C65.2926 163.97 65.8424 163.32 66.2522 163.01C66.812 162.58 67.5616 162.42 68.2614 162.35C69.6108 162.22 70.9502 161.98 72.2897 161.76C73.4192 161.58 74.5787 161.15 75.7282 161.52C76.6978 161.84 77.5075 162.62 77.8373 163.59C77.9273 163.84 77.9673 164.14 77.7974 164.34C77.6674 164.5 77.4475 164.54 77.2376 164.56C75.5483 164.78 73.809 164.84 72.0997 164.9C70.3905 164.96 68.6312 164.96 66.9019 164.84C66.5021 164.81 66.0823 164.76 65.7924 164.49C65.7824 164.49 65.7724 164.47 65.7624 164.46H65.7524Z" fill="white"/>
<path d="M82.4253 141.19C82.4253 141.19 83.095 144.08 82.6052 144.22C82.1154 144.36 80.3262 141.68 80.3262 141.68L82.4253 141.19Z" fill="#231F20"/>
<path d="M61.1348 32.48C63.9736 31.32 70.241 28.08 70.8007 33.39C70.8907 34.04 71.1106 34.18 71.7403 34.3C72.0302 34.37 72.3001 34.35 72.7199 34.49C73.4796 34.79 73.5796 35.73 73.6695 36.42C73.9594 37.5 72.6999 40.12 74.4292 39.98C77.5479 39.93 80.0268 37.54 81.1664 34.67C80.8565 35.88 80.2468 37.02 79.4671 38.02C78.2376 39.51 76.3984 40.54 74.4292 40.62C74.0893 40.63 73.6995 40.58 73.3397 40.35C72.2701 39.28 73.1997 37.74 72.9498 36.5C72.8699 36.09 72.8199 35.33 72.46 35.16C71.9402 35.01 71.0506 34.99 70.5808 34.54C70.2509 34.21 70.191 33.8 70.141 33.49C70.061 32.85 69.9811 32.31 69.6412 31.88C69.3413 31.45 68.8315 31.1 68.3118 30.99C65.9028 30.69 63.4738 31.9 61.1548 32.47L61.1348 32.48Z" fill="white"/>
<path d="M65.3235 43.9699C65.8632 44.7299 66.483 45.7499 67.3226 46.1199C69.3018 46.4699 70.8911 44.5699 72.7504 43.8799C74.0398 43.6499 74.8795 44.7499 75.2493 45.7799C74.9494 45.3599 74.5996 44.9599 74.1798 44.6999C72.7304 43.7099 71.6908 45.5299 70.3414 46.0899C67.7425 47.6199 66.1331 46.8099 65.3135 43.9799L65.3235 43.9699Z" fill="white"/>
<path d="M89.2734 96.2498C90.5629 89.9798 90.6529 83.4898 92.3621 77.3098C92.9719 74.9798 93.6816 72.7698 93.2918 70.3498C93.2418 69.9098 93.3617 69.3898 93.5816 69.0298C95.7607 66.1598 98.0897 63.3998 99.0693 59.8398C98.4596 62.9898 96.7603 65.9098 94.7611 68.3598C94.3113 69.0098 93.8415 69.6299 93.9415 70.2999C94.5612 74.3299 92.602 78.2198 91.9923 82.1298C91.2426 86.7098 90.6129 91.8098 89.2834 96.2498H89.2734Z" fill="white"/>
<path d="M90.9621 91.01C102.827 97.18 113.403 96.44 123.379 87.26C124.598 86.11 125.738 84.84 126.467 83.3C125.927 84.93 124.818 86.31 123.688 87.58C114.212 97.4 102.277 98.42 90.9521 91.01H90.9621Z" fill="white"/>
<path d="M122.489 121.96C127.377 119.76 133.125 118.19 136.194 113.5C134.464 118.75 127.467 121.16 122.489 121.96Z" fill="white"/>
<path d="M58.3662 161.2C62.7944 162.26 67.5124 161.92 71.8706 160.81C75.519 159.97 79.2575 159.77 82.9959 159.83C82.9259 159.74 82.846 159.65 82.776 159.57C82.836 159.54 82.8959 159.51 82.9759 159.46C80.397 159.15 77.7781 159.13 75.1892 159.35C71.6906 159.69 68.332 160.92 64.8535 161.15C62.7244 161.33 60.5753 161.29 58.4162 161.12L58.3662 161.2Z" fill="white"/>
<path d="M82.656 144.65C81.9763 144.61 81.3066 144.76 80.7568 145.14C79.8272 145.79 78.9476 146.91 77.7781 147.3C75.659 148.13 73.3899 148.29 71.1608 148.08C71.1708 148.02 71.1708 147.97 71.1808 147.92C71.1808 147.92 71.1608 147.92 71.1309 147.88C73.7997 147.43 76.6685 147.22 78.8976 145.63C79.7373 144.81 81.0667 143.95 82.3562 144.2C82.4461 144.21 82.5361 144.23 82.626 144.26L82.656 144.65Z" fill="white"/>
<path d="M155.645 145.38C153.616 148.62 149.828 150.76 146.019 150.99L145.909 150.63C149.658 149.62 152.956 147.74 155.575 144.87L155.645 145.38Z" fill="white"/>
<path d="M98.0995 49.9399C91.5123 35.4799 82.2761 45.0199 79.6672 55.8499C78.9775 59.0199 78.4377 62.5599 79.8671 65.6099C78.1279 62.6599 78.5277 58.9599 79.1075 55.7199C81.2965 44.2899 92.3119 34.4599 98.0995 49.9399Z" fill="white"/>
<path d="M75.3994 28.8299C78.5481 26.3599 81.0171 28.8499 80.0175 32.3699C79.8376 33.2499 79.4477 34.0999 78.888 34.7799C79.1978 33.9499 79.3678 33.1199 79.4477 32.2699C79.9175 29.0799 78.5981 27.5699 75.4094 28.8199L75.3994 28.8299Z" fill="white"/>
<defs>
<radialGradient id="paint0_radial_92_157" cx="0" cy="0" r="1" gradientUnits="userSpaceOnUse" gradientTransform="translate(85.0241 126.14) scale(25.6193 25.63)">
<stop stop-color="white"/>
<stop offset="1" stop-color="#E70684"/>
</radialGradient>
</defs>
</svg>
