<svg width="40" height="40" viewBox="0 0 40 40" fill="none" xmlns="http://www.w3.org/2000/svg">
<path d="M21.25 18.7501V27.5001C21.25 27.8316 21.1183 28.1495 20.8838 28.3839C20.6494 28.6184 20.3315 28.7501 20 28.7501C19.6684 28.7501 19.3505 28.6184 19.1161 28.3839C18.8817 28.1495 18.75 27.8316 18.75 27.5001V18.7501C18.75 18.4185 18.8817 18.1006 19.1161 17.8662C19.3505 17.6318 19.6684 17.5001 20 17.5001C20.3315 17.5001 20.6494 17.6318 20.8838 17.8662C21.1183 18.1006 21.25 18.4185 21.25 18.7501ZM27.0062 18.6251L26.1312 27.3751C26.1139 27.5389 26.1292 27.7045 26.1761 27.8624C26.2231 28.0203 26.3007 28.1674 26.4047 28.2952C26.5087 28.4229 26.6369 28.5289 26.7819 28.607C26.927 28.685 27.086 28.7337 27.25 28.7501C27.2921 28.7525 27.3344 28.7525 27.3765 28.7501C27.6861 28.7497 27.9846 28.6344 28.2141 28.4266C28.4436 28.2187 28.5878 27.9331 28.6187 27.6251L29.4937 18.8751C29.5269 18.5452 29.4276 18.2157 29.2178 17.959C29.008 17.7023 28.7048 17.5395 28.375 17.5063C28.0451 17.4732 27.7156 17.5724 27.4589 17.7822C27.2022 17.992 27.0394 18.2952 27.0062 18.6251ZM12.9937 18.6251C12.9606 18.2952 12.7977 17.992 12.541 17.7822C12.2843 17.5724 11.9548 17.4732 11.625 17.5063C11.2951 17.5395 10.9919 17.7023 10.7821 17.959C10.5723 18.2157 10.4731 18.5452 10.5062 18.8751L11.3812 27.6251C11.4123 27.9345 11.5576 28.2212 11.7887 28.4292C12.0199 28.6372 12.3203 28.7516 12.6312 28.7501C12.6734 28.7525 12.7156 28.7525 12.7578 28.7501C12.9211 28.7336 13.0796 28.6852 13.2242 28.6076C13.3688 28.5299 13.4967 28.4245 13.6006 28.2974C13.7045 28.1703 13.7824 28.024 13.8297 27.8668C13.877 27.7096 13.8929 27.5446 13.8765 27.3813L12.9937 18.6251ZM37.489 13.9157L35.1343 31.5813C35.0522 32.1808 34.7562 32.7305 34.3008 33.129C33.8454 33.5276 33.2614 33.7481 32.6562 33.7501H7.34371C6.73857 33.7481 6.15451 33.5276 5.69913 33.129C5.24375 32.7305 4.94773 32.1808 4.86559 31.5813L2.5109 13.9157C2.48729 13.7391 2.50171 13.5595 2.55317 13.389C2.60463 13.2184 2.69195 13.0608 2.80929 12.9268C2.92662 12.7927 3.07125 12.6853 3.23348 12.6117C3.39572 12.5381 3.57181 12.5 3.74996 12.5001H10.6828L19.0625 2.92662C19.1798 2.79361 19.324 2.68709 19.4857 2.61412C19.6473 2.54115 19.8226 2.50342 20 2.50342C20.1773 2.50342 20.3526 2.54115 20.5143 2.61412C20.6759 2.68709 20.8202 2.79361 20.9375 2.92662L29.3172 12.5001H36.25C36.4281 12.5 36.6042 12.5381 36.7664 12.6117C36.9287 12.6853 37.0733 12.7927 37.1906 12.9268C37.308 13.0608 37.3953 13.2184 37.4468 13.389C37.4982 13.5595 37.5126 13.7391 37.489 13.9157ZM14.0046 12.5001H25.9953L20 5.6485L14.0046 12.5001ZM34.8218 15.0001H5.17809L7.34371 31.2501H32.6562L34.8218 15.0001Z" fill="#FF22CE"/>
</svg>
