<svg width="466" height="96" viewBox="0 0 466 96" fill="none" xmlns="http://www.w3.org/2000/svg">
<path d="M52.7671 29.496C52.4672 26.1974 51.1328 23.6334 48.7637 21.8041C46.4247 19.9449 43.081 19.0153 38.7328 19.0153C35.8539 19.0153 33.4549 19.3901 31.5357 20.1398C29.6164 20.8895 28.177 21.9241 27.2174 23.2436C26.2578 24.533 25.763 26.0174 25.733 27.6968C25.673 29.0762 25.9429 30.2907 26.5427 31.3403C27.1724 32.3899 28.0721 33.3195 29.2416 34.1292C30.4411 34.9088 31.8805 35.5986 33.5598 36.1983C35.2392 36.7981 37.1284 37.3229 39.2276 37.7727L47.1444 39.572C51.7025 40.5616 55.7209 41.881 59.1995 43.5304C62.7081 45.1797 65.6469 47.1439 68.0159 49.423C70.415 51.7021 72.2292 54.326 73.4587 57.2948C74.6882 60.2636 75.318 63.5923 75.348 67.2808C75.318 73.0984 73.8486 78.0914 70.9398 82.2597C68.0309 86.4281 63.8476 89.6218 58.3898 91.8409C52.962 94.06 46.4097 95.1695 38.7328 95.1695C31.0259 95.1695 24.3086 94.015 18.5809 91.7059C12.8532 89.3969 8.4 85.8883 5.22128 81.1802C2.04256 76.4721 0.408221 70.5195 0.318258 63.3224H21.6397C21.8196 66.2912 22.6143 68.7652 24.0237 70.7444C25.4331 72.7236 27.3673 74.223 29.8264 75.2426C32.3153 76.2622 35.1942 76.772 38.4629 76.772C41.4617 76.772 44.0106 76.3671 46.1098 75.5574C48.2389 74.7478 49.8733 73.6232 51.0128 72.1838C52.1523 70.7444 52.7371 69.095 52.7671 67.2358C52.7371 65.4965 52.1973 64.0121 51.1477 62.7826C50.0982 61.5231 48.4788 60.4435 46.2897 59.5439C44.1306 58.6143 41.3717 57.7596 38.013 56.9799L28.3869 54.7308C20.4101 52.9016 14.1277 49.9478 9.53954 45.8694C4.95139 41.7611 2.67231 36.2133 2.7023 29.2261C2.67231 23.5284 4.20169 18.5355 7.29044 14.2472C10.3792 9.95891 14.6525 6.61526 20.1103 4.21623C25.5681 1.8172 31.7906 0.61768 38.7777 0.61768C45.9149 0.61768 52.1074 1.83219 57.3552 4.26121C62.6331 6.66024 66.7265 10.0339 69.6353 14.3821C72.5441 18.7304 74.0285 23.7683 74.0885 29.496H52.7671ZM83.5797 19.9599V1.87717H161.443V19.9599H133.51V94H111.558V19.9599H83.5797ZM194.584 1.87717V94H172.318V1.87717H194.584ZM292.183 35.2537H269.692C269.392 32.9446 268.777 30.8605 267.848 29.0012C266.918 27.142 265.689 25.5526 264.159 24.2332C262.63 22.9137 260.816 21.9091 258.716 21.2194C256.647 20.4997 254.353 20.1398 251.834 20.1398C247.366 20.1398 243.513 21.2344 240.274 23.4235C237.065 25.6126 234.591 28.7763 232.852 32.9146C231.143 37.053 230.288 42.061 230.288 47.9386C230.288 54.0561 231.158 59.184 232.897 63.3224C234.666 67.4307 237.14 70.5345 240.319 72.6336C243.528 74.7028 247.321 75.7374 251.699 75.7374C254.158 75.7374 256.392 75.4225 258.402 74.7927C260.441 74.163 262.225 73.2484 263.754 72.0489C265.314 70.8194 266.588 69.335 267.578 67.5957C268.597 65.8264 269.302 63.8322 269.692 61.6131L292.183 61.748C291.793 65.8264 290.609 69.8447 288.629 73.8031C286.68 77.7616 283.996 81.3751 280.578 84.6438C277.159 87.8825 272.991 90.4614 268.073 92.3807C263.185 94.2999 257.577 95.2595 251.25 95.2595C242.913 95.2595 235.446 93.4302 228.849 89.7717C222.281 86.0832 217.093 80.7154 213.285 73.6682C209.476 66.621 207.572 58.0445 207.572 47.9386C207.572 37.8027 209.506 29.2111 213.375 22.164C217.243 15.1168 222.476 9.76399 229.073 6.10547C235.671 2.44694 243.063 0.61768 251.25 0.61768C256.827 0.61768 261.985 1.39737 266.723 2.95674C271.461 4.48612 275.63 6.73521 279.228 9.70401C282.827 12.6428 285.751 16.2564 288 20.5446C290.249 24.8329 291.643 29.7359 292.183 35.2537ZM304.924 94V1.87717H327.19V40.8315H328.405L358.857 1.87717H385.082L352.425 42.9906L385.667 94H359.037L336.097 57.7896L327.19 69.0351V94H304.924ZM442.67 29.496C442.37 26.1974 441.035 23.6334 438.666 21.8041C436.327 19.9449 432.984 19.0153 428.635 19.0153C425.757 19.0153 423.358 19.3901 421.438 20.1398C419.519 20.8895 418.08 21.9241 417.12 23.2436C416.16 24.533 415.666 26.0174 415.636 27.6968C415.576 29.0762 415.846 30.2907 416.445 31.3403C417.075 32.3899 417.975 33.3195 419.144 34.1292C420.344 34.9088 421.783 35.5986 423.462 36.1983C425.142 36.7981 427.031 37.3229 429.13 37.7727L437.047 39.572C441.605 40.5616 445.624 41.881 449.102 43.5304C452.611 45.1797 455.55 47.1439 457.919 49.423C460.318 51.7021 462.132 54.326 463.361 57.2948C464.591 60.2636 465.221 63.5923 465.251 67.2808C465.221 73.0984 463.751 78.0914 460.842 82.2597C457.934 86.4281 453.75 89.6218 448.292 91.8409C442.865 94.06 436.312 95.1695 428.635 95.1695C420.929 95.1695 414.211 94.015 408.484 91.7059C402.756 89.3969 398.303 85.8883 395.124 81.1802C391.945 76.4721 390.311 70.5195 390.221 63.3224H411.542C411.722 66.2912 412.517 68.7652 413.926 70.7444C415.336 72.7236 417.27 74.223 419.729 75.2426C422.218 76.2622 425.097 76.772 428.366 76.772C431.364 76.772 433.913 76.3671 436.012 75.5574C438.142 74.7478 439.776 73.6232 440.915 72.1838C442.055 70.7444 442.64 69.095 442.67 67.2358C442.64 65.4965 442.1 64.0121 441.05 62.7826C440.001 61.5231 438.381 60.4435 436.192 59.5439C434.033 58.6143 431.274 57.7596 427.916 56.9799L418.29 54.7308C410.313 52.9016 404.03 49.9478 399.442 45.8694C394.854 41.7611 392.575 36.2133 392.605 29.2261C392.575 23.5284 394.104 18.5355 397.193 14.2472C400.282 9.95891 404.555 6.61526 410.013 4.21623C415.471 1.8172 421.693 0.61768 428.68 0.61768C435.818 0.61768 442.01 1.83219 447.258 4.26121C452.536 6.66024 456.629 10.0339 459.538 14.3821C462.447 18.7304 463.931 23.7683 463.991 29.496H442.67Z" fill="#FF22CE" fill-opacity="0.2"/>
</svg>
