<svg width="30" height="30" viewBox="0 0 30 30" fill="none" xmlns="http://www.w3.org/2000/svg">
<path d="M7.14272 9.28561H24.9999L22.7341 17.2142C22.5634 17.811 22.203 18.336 21.7073 18.7098C21.2117 19.0835 20.6078 19.2856 19.987 19.2856H10.4156C9.71195 19.286 9.03292 19.0268 8.5086 18.5575C7.98428 18.0883 7.65154 17.4421 7.57415 16.7428L6.42843 6.42847H3.57129" stroke="black" stroke-linecap="round" stroke-linejoin="round"/>
<path d="M9.99986 24.2856C10.7888 24.2856 11.4284 23.646 11.4284 22.857C11.4284 22.0681 10.7888 21.4285 9.99986 21.4285C9.21088 21.4285 8.57129 22.0681 8.57129 22.857C8.57129 23.646 9.21088 24.2856 9.99986 24.2856Z" fill="black"/>
<path d="M21.4286 24.2856C22.2175 24.2856 22.8571 23.646 22.8571 22.857C22.8571 22.0681 22.2175 21.4285 21.4286 21.4285C20.6396 21.4285 20 22.0681 20 22.857C20 23.646 20.6396 24.2856 21.4286 24.2856Z" fill="black"/>
</svg>
