<svg width="1192" height="210" viewBox="0 0 1192 210" fill="none" xmlns="http://www.w3.org/2000/svg">
<mask id="mask0_92_190" style="mask-type:luminance" maskUnits="userSpaceOnUse" x="0" y="0" width="1192" height="210">
<path d="M0 0.026123H1192V209.121H0V0.026123Z" fill="white"/>
</mask>
<g mask="url(#mask0_92_190)">
<path fill-rule="evenodd" clip-rule="evenodd" d="M398.234 93.1079C397.132 93.1079 396.121 93.1812 395.217 93.3154C394.239 93.4684 393.224 93.6993 392.168 94.0223L392.174 94.0285C391.019 94.3828 389.984 94.7666 389.072 95.1754C388.088 95.6202 387.176 96.1008 386.337 96.6188C385.545 97.1197 384.744 97.6986 383.95 98.3634C383.137 99.039 382.449 99.6975 381.878 100.331L381.898 100.35C381.294 101.027 380.809 101.667 380.454 102.252C380.12 102.818 379.838 103.422 379.622 104.068C379.432 104.647 379.314 105.184 379.274 105.683C379.242 106.067 379.261 106.428 379.333 106.755C379.418 107.177 379.529 107.506 379.642 107.731C379.759 107.963 379.93 108.188 380.147 108.42C380.375 108.664 380.651 108.896 380.973 109.102C381.406 109.383 381.91 109.633 382.481 109.853H382.514C383.144 110.096 383.787 110.272 384.428 110.383C385.125 110.505 386.016 110.56 387.091 110.56C388.147 110.56 389.124 110.492 390.017 110.352C391.046 110.194 392.044 109.968 392.994 109.67C393.899 109.389 394.916 108.999 396.024 108.494C397.08 108.018 397.997 107.535 398.777 107.049C399.664 106.499 400.463 105.92 401.172 105.323C401.893 104.72 402.582 104.05 403.232 103.311C403.762 102.709 404.241 102.057 404.66 101.356C405.035 100.721 405.33 100.081 405.547 99.4354C405.73 98.8861 405.84 98.393 405.874 97.9545C405.906 97.552 405.894 97.2102 405.829 96.9356C405.757 96.5892 405.637 96.2662 405.474 95.9557C405.344 95.6982 405.172 95.461 404.976 95.2472C404.719 94.9804 404.437 94.7417 404.123 94.5341C403.703 94.2611 403.205 94.0098 402.627 93.7851C402.076 93.5713 401.46 93.4075 400.772 93.2858C400.09 93.1688 399.244 93.1079 398.234 93.1079ZM403.775 76.6627C400.095 76.6627 396.451 77.084 392.843 77.9126C394.711 77.638 396.509 77.5038 398.234 77.5038C400.07 77.5038 401.925 77.6692 403.789 77.9859C405.644 78.3089 407.429 78.7958 409.121 79.4605C410.78 80.1128 412.307 80.8868 413.698 81.7949C415.193 82.7702 416.505 83.8625 417.633 85.0687C418.806 86.3357 419.784 87.7073 420.557 89.1897C421.305 90.6222 421.862 92.1701 422.223 93.8273C422.604 95.5531 422.728 97.2711 422.597 98.9969C422.473 100.679 422.126 102.374 421.548 104.068C420.991 105.725 420.255 107.317 419.35 108.852C418.479 110.316 417.41 111.76 416.15 113.187C415.304 114.144 414.399 115.058 413.429 115.935C414.111 115.423 414.78 114.887 415.435 114.339C417.272 112.802 418.912 111.224 420.354 109.603C421.758 108.024 422.977 106.36 424.014 104.61C425.01 102.934 425.811 101.203 426.407 99.4354C426.971 97.7595 427.312 96.1616 427.438 94.6449C427.548 93.2062 427.463 91.8284 427.187 90.4989C426.899 89.1335 426.467 87.8852 425.883 86.7695C425.292 85.6288 424.552 84.5756 423.653 83.6112C422.708 82.6001 421.62 81.6919 420.393 80.893L420.381 80.918C419.003 80.0223 417.502 79.2655 415.882 78.6444C412.452 77.3274 408.413 76.6627 403.775 76.6627ZM300.924 93.1079L297.18 104.232C296.996 104.781 296.885 105.274 296.851 105.713C296.819 106.116 296.84 106.457 296.898 106.738C296.977 107.078 297.088 107.401 297.253 107.713C297.39 107.969 297.553 108.206 297.751 108.42C298.006 108.689 298.288 108.932 298.602 109.133C299.022 109.408 299.521 109.658 300.098 109.882C300.649 110.102 301.265 110.266 301.953 110.383C302.637 110.505 303.483 110.56 304.492 110.56C305.593 110.56 306.604 110.492 307.509 110.352C308.454 110.212 309.47 109.974 310.553 109.639H310.585C311.667 109.31 312.69 108.926 313.654 108.494C314.644 108.054 315.549 107.573 316.388 107.049C317.189 106.556 317.982 105.97 318.776 105.306C319.509 104.696 320.193 104.031 320.829 103.324H320.861C321.4 102.715 321.872 102.08 322.271 101.417C322.605 100.849 322.887 100.247 323.104 99.5992C323.3 99.0203 323.42 98.4913 323.451 98.0216C323.485 97.6253 323.465 97.2539 323.393 96.9122C323.307 96.4909 323.203 96.1679 323.084 95.9369C322.966 95.7107 322.797 95.4797 322.587 95.2472C322.357 95.0038 322.075 94.7729 321.752 94.5653C321.353 94.3094 320.836 94.0535 320.218 93.8148V93.8038C319.609 93.5713 318.972 93.4013 318.297 93.2858C317.602 93.1688 316.711 93.1079 315.635 93.1079H300.924ZM299.01 126.841C302.217 126.841 305.39 126.535 308.526 125.933C307.141 126.084 305.798 126.164 304.492 126.164C302.655 126.164 300.8 126.005 298.938 125.682C297.081 125.365 295.305 124.872 293.613 124.207C291.947 123.561 290.418 122.781 289.028 121.873C287.534 120.904 286.221 119.807 285.093 118.599C283.919 117.338 282.942 115.96 282.168 114.479C281.421 113.047 280.863 111.499 280.503 109.846C280.123 108.121 279.997 106.396 280.128 104.677C280.254 102.988 280.608 101.3 281.177 99.5992L283.362 93.1079H280.279L276.529 104.232C275.951 105.945 275.604 107.567 275.473 109.102C275.348 110.578 275.414 111.955 275.676 113.242H275.682C275.965 114.614 276.384 115.845 276.948 116.935C277.506 118.014 278.239 119.044 279.139 120.014C280.063 121 281.132 121.885 282.346 122.671C283.691 123.542 285.178 124.287 286.798 124.901C290.196 126.193 294.268 126.841 299.01 126.841ZM361.003 99.5446C360.702 101.094 360.289 102.655 359.757 104.232C359.24 105.757 358.636 107.25 357.947 108.712L357.927 108.945C357.816 110.365 357.902 111.736 358.184 113.047C358.466 114.387 358.904 115.618 359.495 116.747C360.079 117.873 360.827 118.922 361.731 119.891C362.682 120.916 363.771 121.824 364.99 122.615C366.263 123.445 367.759 124.194 369.476 124.859C372.886 126.182 376.934 126.841 381.609 126.841C384.658 126.841 387.695 126.554 390.724 125.969C389.478 126.103 388.273 126.164 387.091 126.164C385.256 126.164 383.379 126.005 381.478 125.682C379.524 125.352 377.726 124.872 376.087 124.238L376.094 124.226C374.388 123.573 372.847 122.799 371.464 121.902C369.961 120.933 368.637 119.83 367.49 118.599C366.322 117.35 365.344 115.966 364.559 114.436C363.778 112.913 363.214 111.346 362.873 109.742C362.519 108.054 362.406 106.323 362.551 104.555V104.525C362.682 102.86 363.043 101.16 363.62 99.4354C364.164 97.8391 364.899 96.2537 365.83 94.6995C366.755 93.1578 367.804 91.7316 368.977 90.4146H369.011C369.733 89.6095 370.453 88.8605 371.189 88.1583C370.769 88.4938 370.356 88.8293 369.943 89.1772C368.113 90.7127 366.466 92.298 365.01 93.9443C363.607 95.5343 362.388 97.204 361.35 98.9423L361.003 99.5446ZM333.355 78.8083C330.555 77.7238 327.341 77.084 323.727 76.8952L321.799 78.0827C323.51 78.4057 325.11 78.852 326.613 79.4309H326.645C328.298 80.0707 329.84 80.8509 331.262 81.7653C332.764 82.7343 334.096 83.8375 335.244 85.0687C336.404 86.3185 337.381 87.7073 338.168 89.2318C338.949 90.7564 339.513 92.3215 339.854 93.9256C340.208 95.6139 340.319 97.3444 340.175 99.1186C340.044 100.807 339.683 102.514 339.105 104.232C338.561 105.836 337.828 107.414 336.896 108.974C336.023 110.432 334.969 111.858 333.728 113.242L333.748 113.259C333.053 114.033 332.318 114.784 331.55 115.509C331.97 115.174 332.39 114.838 332.798 114.49C334.619 112.967 336.253 111.388 337.702 109.767C339.105 108.181 340.326 106.524 341.362 104.781L341.709 104.171C342.011 102.611 342.438 101.032 342.975 99.4354C343.48 97.9296 344.076 96.455 344.765 95.0038L344.778 94.8088C344.891 93.3701 344.812 91.9938 344.53 90.6643C344.248 89.3239 343.808 88.0678 343.212 86.9037C342.614 85.7396 341.88 84.691 341.014 83.7454C340.109 82.7592 339.033 81.862 337.794 81.0522C336.496 80.1986 335.014 79.448 333.355 78.8083ZM232.7 90.7439C233.277 90.0979 233.882 89.469 234.505 88.8605L233.862 89.391C232.077 90.8952 230.405 92.5227 228.857 94.272C227.422 95.8886 226.176 97.5941 225.113 99.3932C224.091 101.124 223.27 102.898 222.654 104.727L215.204 126.841H218.082L227.094 100.094C227.652 98.4351 228.419 96.7967 229.382 95.1864C230.301 93.6634 231.409 92.1826 232.7 90.7439ZM262.816 77.3399C263.229 77.3399 263.898 77.3587 264.808 77.3945L265.871 76.7173C264.179 76.7969 262.527 76.9561 260.92 77.1995C260.245 77.3025 259.557 77.4258 258.862 77.5599C260.218 77.4133 261.536 77.3399 262.816 77.3399ZM168.208 126.359C169.39 126.176 170.588 125.937 171.809 125.646C170.157 125.883 168.582 125.998 167.093 125.998C165.468 125.998 163.794 125.859 162.076 125.566C160.366 125.285 158.757 124.853 157.25 124.28C155.735 123.701 154.312 122.988 153 122.135C151.622 121.239 150.403 120.22 149.354 119.093C148.253 117.911 147.341 116.631 146.626 115.26C145.911 113.882 145.394 112.424 145.078 110.901C144.757 109.347 144.658 107.774 144.796 106.176C144.92 104.666 145.249 103.129 145.766 101.575L146.423 99.6429L142.251 102.239L140.914 106.208C139.917 109.163 139.68 111.87 140.199 114.32C140.461 115.539 140.854 116.661 141.386 117.673C141.917 118.691 142.586 119.635 143.399 120.507C144.259 121.434 145.249 122.263 146.35 122.982C147.511 123.731 148.882 124.414 150.462 125.023C153.59 126.237 157.29 126.841 161.553 126.841C163.866 126.841 166.091 126.682 168.208 126.359ZM202.92 101.575L211.314 76.6627H208.015L198.061 106.208C197.563 107.695 196.906 109.127 196.087 110.505C195.28 111.877 194.343 113.169 193.273 114.375C192.546 115.21 191.746 116.015 190.893 116.795C191.542 116.302 192.185 115.79 192.815 115.266C194.519 113.84 196.035 112.382 197.366 110.876C199.969 107.944 201.819 104.848 202.92 101.575ZM119.829 77.3399H127.968L129.05 76.6627H90.7965L90.5665 77.3399H110.589L93.9125 126.841H97L113.678 77.3399H119.829ZM127.817 92.9441H125.981L109.303 142.445H71.0899L87.7729 92.9441H67.7456L78.487 61.0586H184.157L175.074 66.7151L161.768 106.208C161.63 106.627 161.546 107.006 161.519 107.336C161.492 107.592 161.499 107.81 161.539 107.976C161.578 108.181 161.637 108.353 161.709 108.494C161.788 108.645 161.887 108.785 162.011 108.913C162.182 109.102 162.372 109.261 162.575 109.395C162.844 109.566 163.191 109.737 163.611 109.895C164.044 110.06 164.516 110.188 165.028 110.266C165.527 110.352 166.215 110.394 167.093 110.394C168.011 110.394 168.826 110.34 169.514 110.243C170.254 110.127 171.062 109.943 171.92 109.681C172.786 109.419 173.612 109.108 174.406 108.749C175.212 108.383 175.973 107.982 176.681 107.542C177.344 107.128 178.012 106.64 178.675 106.086C179.24 105.61 179.777 105.079 180.296 104.5C180.747 103.989 181.115 103.489 181.397 103.007C181.679 102.537 181.902 102.063 182.058 101.575L195.713 61.0586H234.137L230.373 72.2265C233.133 70.4944 236.006 68.9527 238.991 67.5998C241.974 66.247 245.082 65.0766 248.308 64.0889C251.529 63.1074 254.834 62.3568 258.231 61.8388C261.667 61.3207 265.018 61.0586 268.299 61.0586C269.983 61.0586 271.695 61.1382 273.439 61.2911L275.728 54.4814H313.942L309.79 66.8134L318.828 61.224H321.328C328.12 61.224 334.272 62.2898 339.782 64.4244C342.582 65.5089 345.132 66.8071 347.434 68.3129C349.801 69.8546 351.9 71.6288 353.737 73.6277C355.199 75.2193 356.451 76.889 357.501 78.6507C357.909 78.2902 358.315 77.9438 358.728 77.5958C361.05 75.6453 363.607 73.7978 366.4 72.0673C371.87 68.6531 377.76 65.9848 384.062 64.0452C390.541 62.0588 397.112 61.0586 403.775 61.0586C410.536 61.0586 416.694 62.1322 422.25 64.259C425.122 65.3622 427.693 66.648 429.956 68.1179V68.1475C432.355 69.7017 434.474 71.4697 436.31 73.4389C438.192 75.4565 439.747 77.6505 440.966 80.0036C442.2 82.3801 443.091 84.8861 443.649 87.5123C444.206 90.1884 444.377 92.9378 444.161 95.7419C443.944 98.4726 443.353 101.252 442.41 104.068C441.471 106.847 440.239 109.53 438.704 112.107C437.209 114.624 435.399 117.082 433.273 119.477C431.188 121.824 428.979 123.976 426.65 125.92C424.322 127.865 421.771 129.704 418.983 131.443C416.236 133.154 413.389 134.673 410.446 136.002C407.487 137.33 404.418 138.488 401.237 139.457C394.711 141.451 388.167 142.445 381.609 142.445C374.743 142.445 368.558 141.378 363.049 139.245C360.308 138.184 357.764 136.892 355.416 135.361C353.016 133.796 350.904 132.034 349.074 130.071C347.599 128.486 346.319 126.797 345.252 125.012C344.837 125.371 344.431 125.725 344.011 126.072C341.702 128.011 339.159 129.838 336.391 131.564C333.662 133.265 330.837 134.771 327.911 136.08C324.993 137.391 321.924 138.532 318.697 139.501C312.171 141.464 305.607 142.445 299.01 142.445C292.209 142.445 286.038 141.39 280.503 139.287C277.657 138.202 275.098 136.927 272.837 135.472C270.436 133.928 268.324 132.168 266.482 130.193C264.632 128.206 263.091 126.017 261.865 123.634C260.638 121.256 259.76 118.764 259.221 116.168V116.136C258.67 113.454 258.513 110.723 258.749 107.944C258.979 105.226 259.569 102.441 260.527 99.5992L262.77 92.9441C261.655 92.9503 260.625 93.0174 259.688 93.1641C258.717 93.3092 257.661 93.5589 256.533 93.9068C255.418 94.2486 254.349 94.6511 253.327 95.1146H253.293C252.257 95.5827 251.287 96.0945 250.382 96.6625C249.516 97.1977 248.656 97.8266 247.805 98.5397H247.771C246.97 99.2044 246.23 99.9175 245.555 100.679C244.951 101.35 244.44 102.038 244.007 102.745C243.633 103.368 243.332 104.031 243.096 104.727L230.386 142.445H192.382L195.647 132.758C190.807 135.642 185.626 137.934 180.118 139.622C177.141 140.537 174.065 141.231 170.897 141.713C167.711 142.2 164.588 142.445 161.553 142.445C155.112 142.445 149.268 141.432 144.035 139.408C141.438 138.404 139.019 137.172 136.783 135.721C134.493 134.234 132.48 132.552 130.742 130.686C128.946 128.766 127.463 126.682 126.301 124.438C125.128 122.189 124.275 119.813 123.738 117.307C122.675 112.303 123.063 107.055 124.911 101.575L127.817 92.9441Z" fill="#C9C9C9" fill-opacity="0.09"/>
</g>
<mask id="mask1_92_190" style="mask-type:luminance" maskUnits="userSpaceOnUse" x="0" y="0" width="1190" height="208">
<path d="M0 0.026123H1189.26V207.279H0V0.026123Z" fill="white"/>
</mask>
<g mask="url(#mask1_92_190)">
<path fill-rule="evenodd" clip-rule="evenodd" d="M928.484 113.924H938.898L950.643 82.4111H920.168L919.821 83.3552H949.07L939.502 109.035H910.246L908.43 113.924H928.484ZM822.683 113.924H833.097L844.842 82.4111H843.033L837.123 85.9642L833.136 88.4827H833.968L811.613 101.868C807.901 104.171 804.202 106.482 800.49 108.798H800.863L792.502 113.924H822.683ZM702.256 104.848L698.871 113.924H699.18L722.671 99.9892L725.261 98.3866H724.521L740.509 88.8775L741.132 88.4827H741.179L742.431 87.7321H742.24L751.074 82.4111H710.618L702.256 104.848ZM438.339 135.666L467.319 57.908H542.645L521.77 113.924H552.247L567.998 71.6583C570.372 64.2838 578.236 58.3277 586.183 57.908H703.77L716.86 64.6365L719.372 57.908H1075.85C1088.78 58.1327 1098.08 66.7274 1096.59 73.1953L1085.22 103.708C1080.76 110.266 1080.68 112.004 1069.86 114.162L1068.87 114.362H1065.12C1066.09 116.113 1077.43 135.666 1077.33 135.666L1079.26 139.018H1008.04L1004.32 132.552L1001.91 139.018H437.093L438.339 135.666Z" fill="#C9C9C9" fill-opacity="0.09"/>
</g>
<path d="M280.449 63.5835L277.812 71.3428C280.6 72.009 283.184 72.9045 285.558 74.0371L275.569 80.2765V129.517C277.524 130.837 279.735 131.962 282.214 132.901C286.68 134.59 291.803 135.431 297.576 135.431C303.348 135.431 309.055 134.59 314.709 132.901C320.356 131.212 325.558 128.901 330.307 125.958C335.062 123.024 339.202 119.58 342.73 115.633C345.025 113.067 346.902 110.381 348.352 107.578C348.593 106.01 348.995 104.413 349.552 102.772C349.67 102.422 349.794 102.064 349.932 101.72V85.893C348.961 83.6959 347.636 81.6864 345.95 79.8705C343.201 76.905 339.601 74.5686 335.141 72.8503C330.68 71.1367 325.597 70.2784 319.898 70.2784L293.548 86.443H314.204C317.122 86.443 319.72 86.8799 322.002 87.7507C324.279 88.623 326.102 89.7896 327.486 91.2615C328.863 92.7319 329.768 94.475 330.195 96.4907C330.621 98.5003 330.451 100.648 329.677 102.936C328.917 105.169 327.644 107.282 325.859 109.267C324.076 111.252 321.99 112.976 319.616 114.448C317.235 115.918 314.61 117.087 311.744 117.957C308.877 118.83 305.984 119.265 303.059 119.265C300.213 119.265 297.66 118.83 295.417 117.957C293.18 117.087 291.37 115.918 289.986 114.448C288.61 112.976 287.704 111.252 287.265 109.267C286.825 107.282 286.989 105.169 287.743 102.936L301.098 63.5835H280.449ZM391.151 71.2095V87.0008C393.033 86.6305 394.915 86.443 396.811 86.443C399.664 86.443 402.216 86.8799 404.46 87.7507C406.696 88.623 408.507 89.7896 409.89 91.2615C411.269 92.7319 412.174 94.4564 412.612 96.4473C413.052 98.4336 412.894 100.539 412.134 102.772C411.36 105.06 410.075 107.209 408.277 109.223C406.48 111.239 404.394 112.976 402.02 114.448C399.646 115.918 397.034 117.087 394.202 117.957C393.184 118.272 392.175 118.526 391.151 118.726V134.371C393.184 133.972 395.211 133.47 397.231 132.858C402.885 131.146 408.12 128.803 412.914 125.837C417.71 122.872 421.868 119.417 425.404 115.471C428.932 111.524 431.464 107.293 432.999 102.772C434.514 98.3112 434.85 94.0876 434.01 90.1166C433.164 86.1471 431.354 82.6796 428.571 79.7141C425.784 76.7424 422.15 74.3997 417.656 72.6861C413.158 70.974 408.06 70.1141 402.354 70.1141C398.596 70.1141 394.857 70.4782 391.151 71.2095ZM249.496 72.7295C243.757 74.4725 238.462 76.8508 233.61 79.8705C228.762 82.8903 224.537 86.4198 220.95 90.4435C217.355 94.475 214.771 98.8024 213.202 103.426L211.805 107.536V135.431H222.786L233.648 103.426C234.442 101.089 235.787 98.869 237.677 96.7743C239.572 94.6748 241.775 92.8528 244.281 91.3034C246.793 89.7478 249.522 88.5253 252.467 87.6298C255.412 86.7343 258.384 86.2803 261.368 86.2803C262.136 86.2803 262.864 86.2803 263.553 86.322C264.235 86.3701 264.864 86.4491 265.435 86.6071L274.565 80.9054L275.569 77.9461V70.8763C272.82 70.3681 269.915 70.114 266.859 70.114C261.021 70.114 255.229 70.9864 249.496 72.7295ZM211.805 70.114V98.009L221.278 70.114H211.805ZM200.412 70.114L188.606 104.896C187.943 106.857 186.848 108.692 185.333 110.41C183.812 112.124 181.995 113.63 179.882 114.937C177.77 116.245 175.493 117.262 173.053 118.001C170.613 118.738 168.142 119.107 165.635 119.107C163.129 119.107 160.913 118.738 158.972 118.001C157.029 117.262 155.442 116.245 154.221 114.937C152.995 113.63 152.201 112.124 151.847 110.41C151.487 108.692 151.644 106.857 152.307 104.896L160.066 82.038L142.611 92.834V131.612C143.615 132.126 144.672 132.597 145.787 133.022C149.971 134.632 154.74 135.431 160.093 135.431C165.445 135.431 170.764 134.632 176.039 133.022C181.311 131.418 186.193 129.228 190.678 126.456C195.171 123.678 199.069 120.439 202.373 116.735C205.686 113.036 208.047 109.092 209.471 104.896L211.805 98.009V70.114H200.412ZM142.611 70.114V77.8671L155.146 70.114H142.611ZM83.1649 70.114L77.6807 86.2802H97.7066L81.0273 135.431H101.681L118.362 86.2802H129.002L142.611 77.8671V70.114H83.1649ZM275.569 77.9461L277.812 71.3488C277.51 71.276 277.203 71.2032 276.894 71.1366C276.454 71.0467 276.016 70.9491 275.569 70.8716V77.9461ZM385.267 72.6861C379.646 74.3997 374.431 76.7424 369.637 79.7141C364.834 82.6796 360.67 86.1471 357.127 90.1166C354.832 92.7009 352.956 95.3891 351.513 98.1795C351.27 99.7336 350.877 101.32 350.326 102.936C350.2 103.311 350.069 103.68 349.932 104.05V119.792C350.909 121.995 352.261 124.009 353.979 125.837C356.761 128.803 360.381 131.146 364.841 132.858C369.301 134.571 374.418 135.431 380.191 135.431C383.849 135.431 387.51 135.079 391.151 134.371V118.726C389.327 119.09 387.503 119.265 385.673 119.265C382.755 119.265 380.157 118.83 377.882 117.957C375.598 117.093 373.774 115.918 372.391 114.448C371.014 112.982 370.109 111.239 369.682 109.223C369.256 107.209 369.427 105.06 370.201 102.778C370.962 100.545 372.233 98.4336 374.018 96.4473C375.808 94.4626 377.888 92.7319 380.263 91.2615C382.644 89.7958 385.267 88.623 388.133 87.7507C389.137 87.4485 390.146 87.1944 391.151 87.0008V71.2095C389.183 71.6031 387.221 72.0942 385.267 72.6861ZM274.565 80.9054L267.087 102.936C265.553 107.457 265.198 111.687 266.013 115.633C266.826 119.58 268.616 123.024 271.371 125.958C272.604 127.272 274.001 128.459 275.569 129.517V80.2765L274.565 80.9054ZM349.932 101.72C350.385 100.521 350.909 99.3416 351.513 98.1795C351.933 95.4495 351.875 92.8171 351.336 90.2808C351.015 88.7438 350.543 87.2781 349.932 85.893V101.72ZM133.665 98.367L131.448 104.896C130.024 109.092 129.71 113.036 130.503 116.735C131.297 120.439 133.003 123.678 135.607 126.456C137.515 128.488 139.851 130.207 142.611 131.618L142.611 92.834L133.665 98.367ZM348.352 107.578C347.925 110.325 347.984 112.953 348.528 115.471C348.85 116.983 349.322 118.424 349.932 119.792V104.05C349.473 105.242 348.948 106.422 348.352 107.578ZM202.342 135.431H211.805V107.536L202.342 135.431Z" fill="url(#paint0_linear_92_190)" fill-opacity="0.14"/>
<path d="M962.373 63.5835L962.006 64.5804H1066.64L1066.32 63.5835H962.373ZM856.348 63.5835L855.98 64.5804H945.517L945.886 63.5835H856.348ZM721.473 63.5835L721.104 64.5804H839.491L839.866 63.5835H721.473ZM583.398 63.5835C581.854 64.0504 580.888 64.3832 580.506 64.5804H699.354L697.434 63.5835H583.398ZM468.901 63.5835L468.534 64.5804H527.151L527.52 63.5835H468.901ZM960.494 68.6655L960.014 69.9651H1075.83C1075.73 69.831 1078.85 69.6639 1078.78 69.4667C1078.7 69.2632 1078.56 68.9983 1078.38 68.6655H960.494ZM854.476 68.6655L853.996 69.9651H943.526L944.005 68.6655H854.476ZM719.601 68.6655L719.121 69.9651H837.508L837.987 68.6655H719.601ZM573.962 68.6655C573.58 68.8626 573.139 69.2333 572.64 69.768L572.567 69.9652H702.402C702.343 69.2948 702.278 68.8626 702.198 68.6655L573.962 68.6655ZM467.022 68.6655L466.542 69.9651H525.168L525.647 68.6655H467.022ZM1026.59 73.8531C1026.82 74.0503 1026.93 74.2853 1026.91 74.5502C1026.88 74.8215 1026.89 75.1165 1026.92 75.4493H1081.53L1082.11 73.8531H1026.59ZM958.582 73.8531L957.99 75.4493H1013.63L1013.97 74.5502C1013.99 74.4824 1014.23 74.2474 1014.68 73.8531H958.582ZM852.556 73.8531L851.966 75.4493H941.502L942.094 73.8531H852.556ZM717.681 73.8531L717.097 75.4493H835.484L836.068 73.8531H717.681ZM632.041 73.8531L641.938 74.3531C642.797 74.4824 643.279 74.8452 643.358 75.4493H700.609L701.193 73.8531H632.041ZM571.129 73.8531L570.543 75.4493H628.703L630.207 73.8531H571.129ZM465.109 73.8531L464.519 75.4493H523.137L523.728 73.8531H465.109ZM1025.81 79.0344L1025.16 80.8278H1081.94L1082.61 79.0344H1025.81ZM956.663 79.0344L955.998 80.8278H1011.65L1012.31 79.0344H956.663ZM850.643 79.0344L849.981 80.8278H908.599L909.262 79.0344H850.643ZM765.227 79.0344L762.276 80.8278H827.769L830.72 79.0344H765.227ZM642.035 79.0344L641.373 80.8278H698.617L699.282 79.0344H642.035ZM569.216 79.0344L568.553 80.8278H626.718L627.381 79.0344H569.216ZM463.198 79.0344L462.527 80.8278H521.152L521.815 79.0344H463.198ZM1023.94 84.118L1023.17 86.2126H1079.96L1080.73 84.118H1023.94ZM954.784 84.118L954.015 86.2126H1009.66L1010.43 84.118H954.784ZM848.764 84.118L847.989 86.2126H906.614L907.39 84.118H848.764ZM756.94 84.118L753.647 86.2126H819.371L822.663 84.118H756.94ZM640.156 84.118L639.381 86.2126H696.627L697.402 84.118H640.156ZM567.337 84.118L566.561 86.2126H624.726L625.502 84.118H567.337ZM461.319 84.118L460.543 86.2126H519.16L519.936 84.118H461.319ZM1022.02 89.3056L1021.18 91.5974H1077.97L1078.81 89.3056H1022.02ZM952.871 89.3056L952.023 91.5974H1007.66L1008.51 89.3056H952.871ZM846.852 89.3056L846.005 91.5974H933.931L934.779 89.3056H846.852ZM748.614 89.3056L744.79 91.5974H810.742L814.329 89.3056H748.614ZM565.424 89.3056L564.576 91.5974H694.642L695.49 89.3056H565.424ZM459.399 89.3056L458.551 91.5974H517.177L518.025 89.3056H459.399ZM1020.11 94.4869L1019.34 96.5815L1018.5 96.9758H1075.98L1076.9 94.4869L1020.11 94.4869ZM950.958 94.4869L950.033 96.9821H1005.68L1006.6 94.4869H950.958ZM844.934 94.4869L844.013 96.9821H931.948L932.867 94.4869H844.934ZM740.058 94.4869L736.161 96.9821H802.114L806.234 94.4869H740.058ZM563.506 94.4869L562.586 96.9821H692.65L693.57 94.4869H563.506ZM457.487 94.4869L456.566 96.9821H515.185L516.105 94.4869H457.487ZM1013.42 99.5705L1007.13 102.362H1072.02L1073.05 99.5705H1013.42ZM949.079 99.5705L948.048 102.362H1003.69L1004.72 99.5705H949.079ZM843.054 99.5705L842.022 102.362H929.956L930.987 99.5705H843.054ZM731.994 99.5705L727.533 102.362H793.478L797.946 99.5705H731.994ZM561.625 99.5705L560.594 102.362H690.666L691.691 99.5705H561.625ZM455.607 99.5705L454.576 102.362H513.193L514.226 99.5705H455.607ZM947.16 104.752L946.056 107.747H1064.67C1067.97 107.081 1073.48 104.752 1072.19 104.752H947.16ZM841.142 104.752L840.038 107.747H898.655L899.76 104.752H841.142ZM723.668 104.752L718.674 107.747H784.849L789.621 104.752H723.668ZM632.534 104.752L631.43 107.747H688.674L689.778 104.752H632.534ZM559.714 104.752L558.611 107.747H616.775L617.879 104.752H559.714ZM453.695 104.752L452.584 107.747H511.21L512.313 104.752H453.695ZM944.072 113.132H1052.38L1050.77 110.039C1052.71 110.039 978.73 109.939 945.248 109.939L944.072 113.132ZM839.222 109.939L838.046 113.132H896.672L897.847 109.939H839.222ZM715.112 109.939L710.045 113.132H776.451L781.524 109.939H715.112ZM630.614 109.939L629.438 113.132H686.683L687.867 109.939H630.614ZM557.795 109.939L556.619 113.132H614.783L615.959 109.939H557.795ZM451.777 109.939L450.599 113.132H509.218L510.394 109.939H451.777ZM999.7 115.023L1001.85 118.51H1055.43L1053.51 115.023H999.7ZM943.369 115.023L942.081 118.51H997.721L999.017 115.023H943.369ZM837.343 115.023L836.061 118.51H894.68L895.968 115.023H837.343ZM706.825 115.023L701.188 118.51H767.823L773.46 115.023H706.825ZM628.742 115.023L627.448 118.51H684.699L685.986 115.023H628.742ZM555.922 115.023L554.634 118.51H612.793L614.087 115.023H555.922ZM449.896 115.023L448.609 118.51H507.233L508.521 115.023H449.896ZM1002.82 120.204L1004.9 123.895H1058.47L1056.41 120.204H1002.82ZM941.456 120.204L940.089 123.895H995.736L997.097 120.204H941.456ZM835.43 120.204L834.071 123.895H923.602L924.968 120.204H835.43ZM700.562 120.204L699.196 123.895H817.582L818.95 120.204H700.562ZM626.822 120.204L625.463 123.895H682.707L684.075 120.204H626.822ZM554.003 120.204L552.643 123.895H610.808L612.167 120.204H554.003ZM447.985 120.204L446.617 123.895H536.155L537.521 120.204H447.985ZM1005.53 125.288L1007.95 129.28H1061.53L1059.11 125.288H1005.53ZM939.577 125.288L938.105 129.28H993.746L995.218 125.288H939.577ZM833.558 125.288L832.079 129.28H921.617L923.089 125.288H833.558ZM698.683 125.288L697.204 129.28H815.597L817.069 125.288H698.683ZM624.95 125.288L623.471 129.28H680.722L682.194 125.288H624.95ZM552.13 125.288L550.652 129.28H608.816L610.288 125.288H552.13ZM446.106 125.288L444.634 129.28H534.17L535.642 125.288H446.106ZM1008.65 130.475L1009.9 132.668H1063.48L1062.23 130.475H1008.65ZM937.664 130.475L936.85 132.668H992.498L993.305 130.475H937.664ZM831.638 130.475L830.831 132.668H920.362L921.176 130.475H831.638ZM696.765 130.475L695.956 132.668H814.342L815.152 130.475H696.765ZM623.03 130.475L622.223 132.668H679.467L680.276 130.475H623.03ZM550.211 130.475L549.403 132.668H607.561L608.377 130.475H550.211ZM444.193 130.475L443.377 132.668H532.915L533.724 130.475H444.193Z" fill="url(#paint1_linear_92_190)" fill-opacity="0.11"/>
<defs>
<linearGradient id="paint0_linear_92_190" x1="256.07" y1="63.5854" x2="256.07" y2="135.43" gradientUnits="userSpaceOnUse">
<stop stop-color="#6681C9"/>
<stop offset="0.577767" stop-color="#263E86"/>
<stop offset="1" stop-color="#263E86"/>
</linearGradient>
<linearGradient id="paint1_linear_92_190" x1="762.995" y1="132.666" x2="762.995" y2="63.584" gradientUnits="userSpaceOnUse">
<stop stop-color="#6681C9"/>
<stop offset="0.577767" stop-color="#263E86"/>
<stop offset="1" stop-color="#263E86"/>
</linearGradient>
</defs>
</svg>
